<?xml version="1.0" standalone="no"?>
<!DOCTYPE svg PUBLIC "-//W3C//DTD SVG 1.1//EN" "http://www.w3.org/Graphics/SVG/1.1/DTD/svg11.dtd" >
<!--
2013-9-30: Created.
-->
<svg>
<metadata>
Created by iconfont
</metadata>
<defs>

<font id="iconfont" horiz-adv-x="1024" >
  <font-face
    font-family="iconfont"
    font-weight="500"
    font-stretch="normal"
    units-per-em="1024"
    ascent="896"
    descent="-128"
  />
    <missing-glyph />
    
    <glyph glyph-name="14" unicode="&#58880;" d="M1012.57943 562.748006c-62.384333 88.706355-124.767642 177.45152-187.152998 266.178355-5.558784 8.773837-15.641907 14.997606-25.990963 14.997606L495.866405 843.9239680000001l-18.858259 0L201.107351 843.9239680000001c-9.274573 0-16.29993-3.475149-21.120922-8.724685-0.16169-0.164762-0.323379-0.333619-0.483021-0.504525-0.06144-0.07168-0.12585-0.140186-0.188314-0.211866-1.45623-1.581056-2.828493-3.362611-4.073984-5.388698-54.667264-88.779981-109.310976-177.584538-163.970048-266.345165-7.069286-11.485594-4.575437-25.068954 3.217408-34.304307 0.464589-0.687616 0.94761-1.365094 1.465446-2.026189 154.743501-197.936026 309.473792-395.920282 464.213197-593.852211 6.764339-8.662323 15.009485-11.38432 22.812467-10.174771 6.765363-0.012288 13.679104 2.960384 19.571507 10.174771 161.764762 197.93193 323.560141 395.916186 485.335142 593.851187 0.834048 1.021235 1.581056 2.08343 2.281062 3.165082C1017.662362 538.854912 1020.189082 551.915315 1012.57943 562.748006zM929.086464 577.598259L744.622891 577.598259c21.073818 57.48521 42.142515 114.973594 63.218381 172.458803C848.254259 692.574925 888.668365 635.087667 929.086464 577.598259zM501.32183 769.906176c43.903693-64.093798 87.80329-128.202854 131.705958-192.307917l-267.452033 0C410.822042 641.70025 456.066355 705.804186 501.32183 769.906176zM658.999398 517.652992c-52.296192-142.656-104.593306-285.313126-156.88233-427.988582-50.849178 143.119565-101.886566 285.876941-154.817229 427.988582L658.999353 517.652992zM689.525862 600.931738c-41.791488 61.008486-83.577856 122.029261-125.367296 183.049011l192.464152 0C734.256333 722.967142 711.891149 661.9443200000001 689.525862 600.931738zM313.535488 607.451238c-22.372454 58.971136-45.141914 117.820416-68.416922 176.530534l193.015737 0C396.601651 725.14263 355.068006 666.29847 313.535488 607.451238zM195.429786 747.561267c22.282342-56.532582 44.095078-113.194086 65.566925-169.961984L90.795539 577.599283C125.679411 634.255667 160.557158 690.910003 195.429786 747.561267zM283.531878 517.652992c54.76137-146.58857 107.453645-293.868954 159.926784-441.528013C328.409805 223.29897000000005 213.365043 370.47603200000003 98.334515 517.652992L283.531902 517.652992zM722.650624 517.652992l201.057207 0C802.169856 368.95027200000004 680.644198 220.24642600000004 559.121613 71.54984999999999 613.623091 220.25257 668.137882 368.95232 722.650624 517.652992z"  horiz-adv-x="1024" />

    
    <glyph glyph-name="29" unicode="&#58883;" d="M7.696589 452.295475L7.696589 276.16297c0-196.998758 175.669965-267.305984 238.954906-286.242304l0-70.669526 533.053853 0 0.002047 0 0 70.505797c63.622554 18.66711 238.95593 88.996966 238.95593 297.104691L1018.663323 452.296479 7.696589 452.295475 7.696589 452.295475zM963.516006 286.861619c0-206.405939-207.478682-246.952448-216.256-248.568218l-22.696858-4.056371 0-59.84397L301.795596-25.60693900000001l-0.055296 59.466342-22.256845 4.362342c-8.850944 1.738547-216.645837 44.730778-216.645837 237.940224l0 29.080316 900.677341 0L963.514959 286.861636zM963.516006 342.011699L62.839715 342.011699l0 55.142901 900.677341 0L963.516006 342.011699 963.516006 342.011699zM430.463181 783.143629l569.815552 0 0-55.142912-569.815552 0 0 55.142912ZM26.076979 783.143629l55.145165 0 0-55.142912-55.145165 0 0 55.142912ZM26.076979 672.860877l55.145165 0 0-55.142912-55.145165 0 0 55.142912ZM430.463181 672.860877l569.815552 0 0-55.142912-569.815552 0 0 55.142912ZM91.54263 475.871437c57.87136 12.311347 78.389453 58.247578 81.384858 83.449549l0.189338 207.162163c0 34.474189 37.983642 44.166963 43.098317 44.230349l-0.008192 55.140864c-33.180058 0-98.231194-30.003302-98.231194-99.371213l0-201.754027c-1.076531-5.339648-7.476531-28.448973-37.904794-34.920346L91.54263 475.871437zM201.829786 475.871437c57.872384 12.311347 78.388429 58.247578 81.385882 83.449549l0.189338 207.162163c0 34.474189 37.984666 44.166963 43.099341 44.230349l-0.009216 55.140864c-33.181082 0-98.234266-30.003302-98.234266-99.371213l0-201.754027c-1.077555-5.339648-7.473562-28.448973-37.902746-34.920346L201.829786 475.871437zM312.114995 475.871437c57.875456 12.311347 78.389453 58.247578 81.38793 83.449549l0.18729 207.162163c0 34.474189 37.982618 44.166963 43.100365 44.230349l-0.009216 55.140864c-33.181082 0-98.233242-30.003302-98.233242-99.371213l0-201.754027c-1.078579-5.339648-7.475507-28.448973-37.902746-34.920346L312.114995 475.871437z"  horiz-adv-x="1024" />

    
    <glyph glyph-name="20" unicode="&#58881;" d="M341.377 447.47h342.004c47.105 0 85.433 38.322 85.433 85.428v277.661c-0.001 47.109-38.329 85.441-85.433 85.441h-342.004c-47.105 0-85.427-38.332-85.427-85.441v-277.661c0-47.106 38.323-85.428 85.427-85.428v0zM320.933 803.559c0 15.143 12.317 27.459 27.446 27.459h328.001c15.129 0 27.446-12.316 27.446-27.459v-264.662c0-15.131-12.316-27.447-27.446-27.447h-328.003c-15.128 0-27.446 12.317-27.446 27.447l0.001 264.662zM936.415 567.433h-73.69c-49.162 0-93.921-42.145-93.921-88.426v-100.792c-8.656 2.963-17.788 4.93-27.437 4.93h-456.973c-9.653 0-18.79-1.966-27.451-4.936v100.798c0 48.763-37.063 88.426-82.606 88.426h-75.438c-48.612 0-98.896-42.145-98.896-88.427v-443.613c0-44.734 48.868-99.394 98.896-99.394h93.103v-64h63.949v64h512.05v-64h63.986v64.036l104.429-0.035c48.076 0 87.585 52.378 87.585 99.394v443.613c0 49.584-41.84 88.426-87.585 88.427v0zM256.949 291.697c0 15.148 12.311 27.462 27.441 27.462h456.975c15.098 0 27.386-12.269 27.437-27.366v-72.568c-0.051-15.101-12.339-27.347-27.436-27.346h-456.973c-15.129 0-27.441 12.301-27.441 27.44l-0.001 72.377zM960.013 40.394000000000005c0-19.988-13.849-41.413-23.598-41.413h-837.518c-13.702 0-34.91 25.162-34.911 41.413v438.613c0 14.223 18.592 30.444 34.91 30.444h69.434c15.216 0 24.625-15.805 24.625-30.444v-356.113h639.835v85.332c0 0.04 0.011 0.059 0.011 0.095v138.381c0 0.025-0.011 0.062-0.011 0.091v132.213c0 13.94 19.478 30.444 35.935 30.444h67.691c14.77 0 23.598-15.477 23.598-30.444l-0.001-438.613zM960.013 40.394000000000005z"  horiz-adv-x="1024" />

    
    <glyph glyph-name="down" unicode="&#58992;" d="M512 467.2 256 672l0-115.2 256-204.8 256 204.8L768 672 512 467.2zM256 416l0-115.2 256-204.8 256 204.8L768 416l-256-204.8L256 416z"  horiz-adv-x="1024" />

    
    <glyph glyph-name="up" unicode="&#58993;" d="M768 96l0 115.2L512 416l-256-204.8 0-115.2 256 204.8L768 96zM512 556.8l256-204.8L768 467.2 512 672 256 467.2l0-115.2L512 556.8z"  horiz-adv-x="1024" />

    
    <glyph glyph-name="19" unicode="&#59090;" d="M991.977167 190.15203699999995l-287.985993 0-383.981325 0-287.985993 0c-17.686824 0-31.998785-14.31196-31.998785-31.998785l0-191.989639c0-17.687848 14.31196-31.998785 31.998785-31.998785l287.985993 0 383.981325 0 287.985993 0c17.686824 0 31.998785 14.309914 31.998785 31.998785L1023.975952 158.15427499999998C1023.974929 175.84007599999995 1009.662969 190.15203699999995 991.977167 190.15203699999995zM64.021617-1.8376019999999471L64.021617 126.15549099999998l255.987209 0 0-127.993093L64.021617-1.8376019999999471zM384.006396-1.8376019999999471L384.006396 126.15549099999998l255.987209 0 0-127.993093L384.006396-1.8376019999999471zM959.978383-1.8376019999999471l-255.987209 0L703.991174 126.15549099999998l255.987209 0L959.978383-1.8376019999999471zM416.004157 638.1309309999999l-191.990662 0c-17.686824 0-31.998785-14.31196-31.998785-31.998785l0-191.990662c0-17.686824 14.31196-31.998785 31.998785-31.998785l191.990662 0c17.686824 0 31.998785 14.31196 31.998785 31.998785L448.002942 606.1321459999999C448.002942 623.8189709999999 433.690982 638.1309309999999 416.004157 638.1309309999999zM384.006396 446.140269l-127.994116 0L256.01228 574.1343850000001l127.994116 0L384.006396 446.140269zM799.985482 638.1309309999999l-191.990662 0c-17.686824 0-31.998785-14.31196-31.998785-31.998785l0-191.990662c0-17.686824 14.31196-31.998785 31.998785-31.998785l191.990662 0c17.686824 0 31.998785 14.31196 31.998785 31.998785L831.984267 606.1321459999999C831.984267 623.8189709999999 817.672306 638.1309309999999 799.985482 638.1309309999999zM767.986697 446.140269l-127.994116 0L639.992581 574.1343850000001l127.994116 0L767.986697 446.140269zM991.977167 638.1309309999999l31.998785 0 0 95.995331c0 17.686824-14.31196 31.998785-31.998785 31.998785l-959.954335 0c-17.686824 0-31.998785-14.31196-31.998785-31.998785l0-95.995331 31.998785 0c17.686824 0 31.998785-14.31196 31.998785-31.998785l0-191.990662c0-17.686824-14.31196-31.998785-31.998785-31.998785l-31.998785 0 0-95.996354c0-17.685801 14.31196-31.998785 31.998785-31.998785l959.954335 0c17.686824 0 31.998785 14.31196 31.998785 31.998785l0 95.996354-31.998785 0c-17.686824 0-31.998785 14.31196-31.998785 31.998785L959.978383 606.1321459999999C959.978383 623.8189709999999 974.290343 638.1309309999999 991.977167 638.1309309999999zM959.978383 323.6454l0-5.500271-895.956765 0 0 5.500271c37.247322 13.187347 63.996546 48.77896 63.996546 90.496084L128.018164 606.1321459999999c0 41.717124-26.749224 77.308737-63.996546 90.496084l0 5.500271 895.956765 0 0-5.500271c-37.247322-13.186324-63.996546-48.77896-63.996546-90.496084l0-191.990662C895.981836 372.42436 922.730037 336.83274700000004 959.978383 323.6454z"  horiz-adv-x="1024" />

    
    <glyph glyph-name="11" unicode="&#59102;" d="M991.975665 447.973458l-31.998753 0-103.370196 287.985706c0 17.624385-15.49898 31.998753-34.498687 31.998753l-54.121587 0-85.371281 95.996259c0 17.624385-19.123527 31.998753-42.622707 31.998753l-255.986953 0c-23.624023 0-42.74755-14.374368-42.74755-31.998753l-85.246438-95.996259-54.247454 0c-18.998684 0-34.373844-14.374368-34.373844-31.998753L64.022065 447.973458l-31.998753 0c-17.749228 0-31.998753-14.375391-31.998753-31.999776 0-17.749228 14.249525-31.998753 31.998753-31.998753l66.371574 0 45.622015 0 47.997106-63.996482 0-191.99047c0-141.367563 136.120054-255.987976 319.984459-255.987976 183.741607 0 319.984459 114.620413 319.984459 255.987976L831.982924 319.97947l47.997106 63.996482 45.498195 0 66.495394 0c17.625408 0 31.999776 14.249525 31.999776 31.998753C1023.975441 433.59909 1009.601073 447.973458 991.975665 447.973458zM389.099513 821.455288c2.906187 3.250017 5.437844 6.749721 7.593948 10.499111l230.488234 0c2.156104-3.74939 4.71846-7.249094 7.624647-10.499111l47.529455-53.497371-340.735041 0L389.099513 821.455288zM223.889963 703.961434l74.746303 0 426.603648 0 74.87217 0 91.870292-255.986953-759.962705 0L223.889963 703.961434zM511.999488-64.00147100000004c-143.554367 0-255.986953 84.308067-255.986953 191.99047L256.012535 287.98173999999995l511.974929 0 0-159.992741C767.988488 20.306596000000013 655.555902-64.00147100000004 511.999488-64.00147100000004zM780.799245 358.352391c-8.312308-11.062952-12.811781-24.498949-12.811781-38.372921l-511.974929 0c0 13.873972-4.499473 27.309969-12.812804 38.372921l-19.185949 25.623562 575.971411 0L780.799245 358.352391z"  horiz-adv-x="1024" />

    
    <glyph glyph-name="39" unicode="&#59124;" d="M864.124268 307.343109L864.124268 544.240541c0 17.693987-14.380522 32.011064-32.012088 32.011064l-96.034217 0 0 96.034217c0 17.693987-14.380522 32.012088-32.012088 32.012088l-96.034217 0 0 32.011064c0 17.693987-14.380522 32.011064-32.012088 32.011064l-128.045281 0c-17.757432 0-32.012088-14.317077-32.012088-32.011064l0-32.011064-96.034217 0c-17.756409 0-32.011064-14.3181-32.011064-32.012088l0-96.034217-96.034217 0c-17.756409 0-32.011064-14.317077-32.011064-32.011064l0-236.897432-128.045281-51.206242 221.578538-384.136867 517.184069 0 221.579561 384.136867L864.124268 307.343109zM351.942119 640.273734l96.034217 0 128.045281 0 96.034217 0 0-64.023152-320.113715 0L351.942119 640.273734zM223.895815 512.228453l64.023152 0 64.023152 0 320.113715 0 64.023152 0 64.023152 0 0-179.2505-288.10265 115.228371-288.103674-115.228371L223.895815 512.228453zM124.173602 224.12580300000002l355.814822 142.30096 0-430.402587-189.630918 0L124.173602 224.12580300000002zM733.640448-63.97582399999999l-189.630918 0 0 430.402587 355.814822-142.30096L733.640448-63.97582399999999z"  horiz-adv-x="1024" />

    
    <glyph glyph-name="baidu" unicode="&#59062;" d="M226.522 359.947c96.993 20.839 83.792 136.761 80.878 162.089-4.758 39.065-50.691 107.346-113.075 101.952-78.499-7.036-89.957-120.445-89.957-120.445C93.748 451.143 129.764 339.143 226.522 359.947zM329.512 158.39c-2.848-8.175-9.18-29.014-3.686-47.173 10.822-40.707 46.168-42.55 46.168-42.55l50.792 0L422.786 192.831 368.41 192.831C343.952 185.527 332.159 166.532 329.512 158.39zM406.537 554.334c53.572 0 96.859 61.646 96.859 137.9 0 76.12-43.287 137.767-96.859 137.767-53.472 0-96.892-61.646-96.892-137.767C309.645 615.981 353.065 554.334 406.537 554.334zM637.241 545.221c71.598-9.281 117.632 67.141 126.777 125.035 9.349 57.827-36.854 125.036-87.544 136.561-50.791 11.659-114.213-69.688-119.976-122.757C549.597 619.197 565.779 554.434 637.241 545.221zM812.666 204.826c0 0-110.761 85.701-175.425 178.305-87.645 136.593-212.177 81.011-253.822 11.558-41.478-69.452-106.106-113.375-115.286-125-9.314-11.458-133.813-78.666-106.173-201.423 27.64-122.69 124.7-120.345 124.7-120.345s71.53-7.036 154.519 11.524c83.021 18.428 154.484-4.59 154.484-4.59s193.919-64.929 246.988 60.072C895.655 139.963 812.666 204.826 812.666 204.826zM480.881 18.747 354.807 18.747c-54.443 10.855-76.12 48.044-78.867 54.343-2.68 6.433-18.125 36.317-9.951 87.109 23.52 76.12 90.627 81.614 90.627 81.614l67.107 0 0 82.485 57.157-0.871L480.88 18.747zM715.674 19.618l-145.07 0c-56.219 14.508-58.866 54.444-58.866 54.444L511.738 234.51l58.866 0.938 0-144.199c3.586-15.345 22.682-18.159 22.682-18.159l59.771 0L653.057 234.51l62.618 0L715.675 19.618zM921.051 447.994c0 27.708-23.018 111.13-108.385 111.13-85.501 0-96.925-78.732-96.925-134.382 0-53.136 4.489-127.313 110.695-124.935C932.677 302.154 921.051 420.119 921.051 447.994z"  horiz-adv-x="1024" />

    
    <glyph glyph-name="10" unicode="&#58910;" d="M901.280004 566.419679l40.251749 40.711214L723.652468 827.519326l-40.252773-40.715307 54.458309-55.086619-77.55126-78.443583L559.278793 755.46629l-40.246633-40.715307 45.402049-45.932122-397.237233-403.318742 0 0 0-199.828165L79.770811-34.242639000000054l21.716604-24.976858 90.687442 99.912547 189.346439 3.433192 0.326435-0.327458 0.343831 0.346901 0 0 0 0 399.902946 404.51294 50.789757-51.373041 40.246633 40.714284L769.135358 543.190629l77.552284 78.44563L901.280004 566.419679 901.280004 566.419679zM707.633632 416.357965l-85.092004 86.073354-34.20401-34.597983 85.09405-86.074378-39.730886-40.187281-85.09405 86.073354-34.206056-34.600029 85.096097-86.070284-47.855938-48.4075-85.09098 86.075401-34.206056-34.599006 85.09405-86.070284-34.55398-34.951023-85.096097 86.068238-34.20401-34.594913 85.096097-86.073354-66.832128-67.606771L206.715015 263.96413600000005l378.279463 382.628514 175.125553-177.142489L707.633632 416.357965 707.633632 416.357965zM747.869009 564.7025719999999l-66.295915 67.060325 72.018244 72.847122 66.295915-67.060325L747.869009 564.7025719999999 747.869009 564.7025719999999zM747.869009 564.7025719999999"  horiz-adv-x="1024" />

    
    <glyph glyph-name="23" unicode="&#58901;" d="M671.1808 707.5840000000001c0 0-302.9248 131.7376-463.6416-194.9184C94.2592 246.60479999999995 328.704 72.75519999999995 360.3456 62.20799999999997c31.5904-10.5472 358.2464 121.856 237.0816 370.4576-31.6416-128.1024-36.8896-228.1984-255.5392-296.704 0 0-257.2288 276.608 82.1248 532.1216 17.1264 7.7312 54.8608 7.9104 54.8608 7.9104s-163.328-129.0752-79.0272-289.7664C410.368 428.3648 420.9152 620.6464000000001 671.1808 707.5840000000001zM404.1216 45.33759999999995c0 0 302.9248-131.7376 463.616 194.8928 113.3056 266.0864-121.1392 439.936-152.8064 450.4576-31.5904 10.5472-358.2464-121.856-237.056-370.4576 31.5904 128.1024 36.864 228.1984 255.5136 296.704 0 0 257.2544-276.608-82.0992-532.096-17.152-7.7568-54.912-7.9104-54.912-7.9104s163.3536 129.0496 79.0528 289.7408C664.8832 324.55679999999995 654.3872 132.2496 404.1216 45.33759999999995z"  horiz-adv-x="1024" />

    
    <glyph glyph-name="28" unicode="&#58973;" d="M896.952442 635.39768L884.601136 635.39768c-7.614421 0-14.902408-1.38658-21.636786-3.90596l0 10.926864c0 45.404096-36.939307 82.34238-82.34238 82.34238l-2.058892 0c-45.403073 0-82.34238-36.938284-82.34238-82.34238L696.220698 431.600111 327.734276 431.600111 327.734276 642.419608c0 45.404096-36.938284 82.34238-82.34238 82.34238l-2.058892 0c-45.404096 0-82.34238-36.938284-82.34238-82.34238l0-10.909467c-6.722098 2.509147-13.994736 3.888564-21.591761 3.888564L127.047558 635.398704c-34.107819 0-61.757552-27.649733-61.757552-61.757552l0-405.538293c0-34.107819 27.649733-61.757552 61.757552-61.757552l12.351306 0c7.597025 0 14.869662 1.379417 21.591761 3.888564l0-15.395642c0-45.403073 36.938284-82.34238 82.34238-82.34238l2.058892 0c45.404096 0 82.34238 36.939307 82.34238 82.34238L327.734276 303.968246l368.484376 0 0-209.130018c0-45.403073 36.939307-82.34238 82.34238-82.34238l2.058892 0c45.403073 0 82.34238 36.939307 82.34238 82.34238l0 15.413038c6.734378-2.520403 14.023388-3.90596 21.636786-3.90596l12.351306 0c34.107819 0 61.757552 27.649733 61.757552 61.757552L958.707948 573.641151C958.708971 607.74897 931.059238 635.39768 896.952442 635.39768zM159.984714 168.10285799999997c0-11.368932-9.216919-20.585851-20.585851-20.585851L127.047558 147.51700700000004c-11.368932 0-20.585851 9.216919-20.585851 20.585851L106.461707 573.641151c0 11.368932 9.216919 20.585851 20.585851 20.585851l12.351306 0c11.368932 0 20.585851-9.216919 20.585851-20.585851L159.984714 168.10285799999997zM245.391896 53.66754900000001l-2.058892 0c-22.702048 0-41.171702 18.46863-41.171702 41.171702L202.161303 642.419608c0 22.702048 18.469654 41.171702 41.171702 41.171702l2.058892 0c22.701025 0 41.171702-18.469654 41.171702-41.171702l0-547.580357C286.563598 72.13617999999997 268.093944 53.66754900000001 245.391896 53.66754900000001zM695.212742 345.139947L327.734276 345.139947l0 45.288462 367.477442 0L695.211718 345.139947zM821.791625 94.83925099999999c0-22.702048-18.46863-41.171702-41.171702-41.171702l-2.058892 0c-22.702048 0-41.171702 18.46863-41.171702 41.171702L737.38933 642.419608c0 22.702048 18.46863 41.171702 41.171702 41.171702l2.058892 0c22.702048 0 41.171702-18.469654 41.171702-41.171702L821.791625 94.83925099999999zM917.538293 168.10285799999997c0-11.368932-9.216919-20.585851-20.585851-20.585851L884.601136 147.51700700000004c-11.368932 0-20.585851 9.216919-20.585851 20.585851L864.015286 573.641151c0 11.368932 9.216919 20.585851 20.585851 20.585851l12.351306 0c11.368932 0 20.585851-9.216919 20.585851-20.585851L917.538293 168.10285799999997z"  horiz-adv-x="1024" />

    
    <glyph glyph-name="imgtext" unicode="&#58916;" d="M896.021502 640.043004L607.897867 640.043004c-17.717453 0-31.994625 14.277171-31.994625 31.994625 0 17.717453 14.277171 31.994625 31.994625 31.994625l287.951621 0c17.717453 0 31.994625-14.277171 31.994625-31.994625C928.016126 654.3201750000001 913.738955 640.043004 896.021502 640.043004zM896.021502 480.069881L607.897867 480.069881c-17.717453 0-31.994625 14.277171-31.994625 31.994625s14.277171 31.994625 31.994625 31.994625l287.951621 0c17.717453 0 31.994625-14.277171 31.994625-31.994625S913.738955 480.069881 896.021502 480.069881zM896.021502 223.94087000000002L607.897867 223.94087000000002c-17.717453 0-31.994625 14.277171-31.994625 31.994625s14.277171 31.994625 31.994625 31.994625l287.951621 0c17.717453 0 31.994625-14.277171 31.994625-31.994625S913.738955 223.94087000000002 896.021502 223.94087000000002zM896.021502 63.96774700000003L607.897867 63.96774700000003c-17.717453 0-31.994625 14.277171-31.994625 31.994625s14.277171 31.994625 31.994625 31.994625l287.951621 0c17.717453 0 31.994625-14.277171 31.994625-31.994625S913.738955 63.96774700000003 896.021502 63.96774700000003zM383.935495 416.080632L191.967747 416.080632c-52.980346 0-95.983874 43.003528-95.983874 95.983874L95.983874 704.032253c0 52.980346 43.003528 95.983874 95.983874 95.983874l191.967747 0c52.980346 0 95.983874-43.003528 95.983874-95.983874l0-191.967747C479.919368 459.084159 436.915841 416.080632 383.935495 416.080632zM191.967747 736.026877c-17.545439 0-31.994625-14.449185-31.994625-31.994625l0-191.967747c0-17.545439 14.449185-31.994625 31.994625-31.994625l191.967747 0c17.545439 0 31.994625 14.449185 31.994625 31.994625L415.930119 704.032253c0 17.545439-14.449185 31.994625-31.994625 31.994625L191.967747 736.026877 191.967747 736.026877zM383.935495-32.016125999999986L191.967747-32.016125999999986c-52.980346 0-95.983874 43.003528-95.983874 95.983874L95.983874 256.10750900000005c0 52.980346 43.003528 95.983874 95.983874 95.983874l191.967747 0c52.980346 0 95.983874-43.003528 95.983874-95.983874l0-191.967747C479.919368 11.159414999999967 436.915841-32.016125999999986 383.935495-32.016125999999986zM191.967747 288.102133c-17.545439 0-31.994625-14.277171-31.994625-31.994625l0-191.967747c0-17.717453 14.449185-31.994625 31.994625-31.994625l191.967747 0c17.545439 0 31.994625 14.277171 31.994625 31.994625L415.930119 256.10750900000005c0 17.717453-14.449185 31.994625-31.994625 31.994625L191.967747 288.102133 191.967747 288.102133z"  horiz-adv-x="1024" />

    
    <glyph glyph-name="img" unicode="&#58955;" d="M416.006204 395.995195l-350.994026 0L65.012178 575.568037c0 76.983325 73.821309 149.931754 151.901619 149.931754l199.092407 0L416.006204 395.995195zM112.084263 443.06728l255.82655 0 0 235.360426L216.91482 678.427706c-52.005444 0-104.829534-51.9113-104.829534-102.859669L112.085286 443.06728zM708.005604 347.56109000000004c-128.945791 0-233.852072 104.896048-233.852072 233.830583 0 128.959094 104.907305 233.875608 233.852072 233.875608 128.947837 0 233.853096-104.916515 233.853096-233.875608C941.8587 452.457138 836.953442 347.56109000000004 708.005604 347.56109000000004zM708.005604 768.497071c-103.157451 0-187.081862-83.934644-187.081862-187.105399 0-103.144148 83.925435-187.05935 187.081862-187.05935 103.158475 0 187.080839 83.914178 187.080839 187.05935C895.086443 684.561403 811.163055 768.497071 708.005604 768.497071zM843.413983 451.800193l116.925433-116.925433-33.071215-33.071215-116.925433 116.925433 33.071215 33.071215ZM416.006204-46.073082L216.91482-46.073082c-37.357839 0-74.841545 12.490475-102.839203 34.270525-31.638581 24.613584-49.063439 58.805314-49.063439 96.280834L65.012178 304.92094399999996l350.994026 0L416.006204-46.073082zM112.084263 256.825552l0-172.347277c0-51.662637 54.336536-83.479273 104.829534-83.479273l150.997016 0 0 255.82655L112.084263 256.825552zM731.391221-46.073082L510.150374-46.073082l0 350.994026 350.994026 0 0-220.442668C861.1444 6.389779999999973 808.554648-46.073082 731.391221-46.073082zM557.222459 0.9990030000000161L731.391221 0.9990030000000161c51.405787 0 81.657788 31.105439 81.657788 83.479273L813.049009 256.825552l-255.82655 0L557.222459 0.9990030000000161z"  horiz-adv-x="1024" />

    
    <glyph glyph-name="qunzu" unicode="&#59095;" d="M621.341 434.994c43.302 34 71.237 86.668 71.237 145.856 0 102.308-83.223 185.535-185.538 185.535-102.311 0-185.535-83.223-185.535-185.535 0-59.189 27.965-111.856 71.237-145.856-114.028-45.57-194.928-156.974-194.928-287.061v-61.845c0-17.093 13.83-30.926 30.926-30.926h556.608c17.093 0 30.919 13.83 30.919 30.926v61.844c0.003 130.123-80.869 241.492-194.926 287.062v0zM507.044 704.541c68.215 0 123.689-55.473 123.689-123.689 0-68.219-55.473-123.695-123.689-123.695-68.219 0-123.694 55.474-123.694 123.695-0.001 68.215 55.473 123.689 123.694 123.689v0zM754.422 117.006h-494.765v30.925c0 136.403 110.977 247.38 247.413 247.38 136.403 0 247.35-110.977 247.35-247.38v-30.925zM754.422 117.006zM300.033 424.243c0.848 1.87 0.848 3.863 1.267 5.797 0.3 1.178 0.636 2.294 0.788 3.534 0.238 2.444 0.092 4.769-0.243 7.154-0.119 1.267 0.181 2.478-0.119 3.745-0.181 0.727-0.693 1.239-0.908 1.966-0.479 1.386-1.143 2.625-1.808 3.922-1.274 2.659-2.659 5.073-4.562 7.217-0.273 0.3-0.603 0.515-0.905 0.817-2.806 2.929-6.041 5.162-9.724 6.764-33.461 14.916-55.084 48.138-55.084 84.736 0 43.063 29.169 80.147 70.961 90.201 16.609 4.018 26.816 20.719 22.833 37.329-4.046 16.606-20.81 26.693-37.329 22.83-69.666-16.791-118.314-78.639-118.314-150.357 0-39.138 14.889-75.826 40.193-103.728-80.475-41.706-132.96-125.109-132.96-219.481v-47.834c0-17.093 13.83-30.926 30.919-30.926 17.093 0 30.926 13.83 30.926 30.926v47.834c0 85.523 57.497 158.905 139.999 179.68 10.263 1.449 19.598 7.698 24.064 17.875v0zM300.033 424.243zM806.879 446.165c25.305 27.903 40.19 64.593 40.19 103.731 0 69.847-47.047 131.271-114.416 149.36-16.458 4.41-33.43-5.346-37.902-21.831-4.438-16.519 5.346-33.46 21.838-37.902 40.403-10.838 68.637-47.712 68.637-89.628 0-36.597-21.589-69.755-55.019-84.705-3.742-1.632-7.037-3.892-9.871-6.853-0.243-0.273-0.546-0.454-0.788-0.727-1.931-2.143-3.318-4.621-4.621-7.308-0.633-1.296-1.326-2.507-1.78-3.863-0.211-0.693-0.726-1.239-0.905-1.963-0.3-1.267 0-2.477-0.124-3.745-0.33-2.386-0.478-4.711-0.238-7.158 0.153-1.235 0.484-2.353 0.784-3.531 0.421-1.933 0.421-3.926 1.267-5.802 4.473-10.174 13.804-16.429 24.066-17.872 82.501-20.78 139.998-94.157 139.998-179.68v-47.838c0-17.089 13.83-30.919 30.926-30.919 17.089 0 30.919 13.83 30.919 30.919v47.838c0 94.371-52.482 177.777-132.96 219.479v0zM806.879 446.165z"  horiz-adv-x="1024" />

    
    <glyph glyph-name="picture" unicode="&#59101;" d="M273.81 446.254c26.866 0 44.772 8.955 62.681 26.862 17.908 17.908 26.867 40.294 26.867 62.682 0 22.388-8.959 44.772-26.867 62.682-17.907 17.913-35.815 26.866-62.681 26.866-26.862 0-44.772-8.955-62.682-26.866-17.908-17.908-26.862-35.815-26.862-62.682 0-26.862 8.954-44.772 26.862-62.682 17.908-17.907 40.293-26.862 62.682-26.862v0zM273.81 446.254zM837.95 356.706l-192.526 192.526-237.296-237.298-76.111 76.114-147.75-147.75v-89.543h653.683v205.953zM837.95 356.706zM914.06 728.323h-805.909c-22.388 0-44.772-22.387-44.772-44.772v-595.477c0-22.387 22.387-44.772 44.772-44.772h805.908c22.388 0 44.772 22.388 44.772 44.772v595.475c0.001 26.866-22.386 44.775-44.771 44.775v0zM914.06 92.54600000000005h-805.909v591.002h805.908v-591.002h0.001zM914.06 92.54600000000005z"  horiz-adv-x="1024" />

    
    <glyph glyph-name="41" unicode="&#58900;" d="M955.615 472.926c21.082 11.811 33.181 30.697 33.194 51.829 0.012 21.138-12.074 40.049-33.168 51.886l-392.14 219.998c-28.802 16.165-74.293 16.146-102.971 0.006l-392.14-219.993c-21.107-11.823-33.205-30.735-33.2-51.879s12.112-40.044 33.181-51.829l109.597-61.492c-0.069-0.943-0.283-1.843-0.283-2.805v-292.278c0-2.164 0.181-4.278 0.531-6.343 7.357-99.042 171.885-150.815 333.898-150.815 163.814 0 330.207 52.937 334.073 154.156 0.076 0.989 0.112 1.989 0.112 3.003v292.278c0 0.955-0.212 1.852-0.281 2.79l109.595 61.49zM498.165 729.62c1.764 0.994 6.668 2.671 13.838 2.671 6.269 0 11.473-1.345 13.862-2.684l365.076-204.821-365.089-204.839c-1.764-0.989-6.668-2.671-13.851-2.671-6.281 0-11.486 1.345-13.862 2.677l-365.076 204.839 365.102 204.828zM769.429 118.346c-0.026-0.525-0.037-1.038-0.05-1.564-0.3-28.451-98.204-80.7-257.264-80.7s-256.976 52.249-257.282 80.7c-0.018 1.413-0.112 2.803-0.275 4.178v247.521l205.973-115.567c14.375-8.069 32.655-12.511 51.473-12.511 18.83 0 37.109 4.448 51.473 12.511l205.954 115.551v-250.121zM944.842 441.177c-21.232 0-38.436-17.21-38.436-38.436v-305.139c0-21.232 17.203-38.436 38.436-38.436s38.436 17.203 38.436 38.436v305.14c0 21.226-17.203 38.435-38.436 38.435z"  horiz-adv-x="1024" />

    
    <glyph glyph-name="33" unicode="&#58947;" d="M372.852046 544.366802c78.781432-12.592135 110.504812-49.488472 110.530395-124.841733 0.040933-121.843362 0.112567-243.686724-0.0307-365.530085-0.086983-74.989977-42.130695-117.002988-116.936471-117.161605-50.271324-0.10745-100.542647-0.1842-150.813971 0.020467-70.61522 0.29165-113.185949 42.719113-113.206416 112.602648-0.035817 126.105551-0.025583 252.205986-0.005117 378.311538 0.010233 62.535992 30.700045 101.832049 91.496367 113.134782 16.659891 3.095588 20.620197 9.440264 20.502513 24.749353-0.475851 60.484205-0.706101 120.993994 0.440034 181.467966 0.690751 36.41537 24.636786 64.756628 57.542118 72.139989 38.226673 8.575546 75.27651-6.605626 90.017649-40.81571 7.15311-16.603608 9.639814-36.220936 10.008215-54.564213C373.604197 664.383511 372.852046 604.84589 372.852046 544.366802zM260.305681 497.017099c-15.119772 0-26.913706 0.102333-38.70764-0.020467-50.460641-0.521901-73.669875-23.224584-73.767091-73.367991-0.235367-123.623964-0.240484-247.247929 0.010233-370.871893 0.0921-44.663449 21.884015-69.627702 65.851596-71.178054 52.788727-1.862469 105.746305-1.790836 158.540149-0.010233 42.811213 1.448019 65.032929 26.279238 65.135262 69.151851 0.296767 126.182302 0.32235 252.364603-0.01535 378.546905-0.112567 41.859511-24.611203 66.15348-66.731664 67.611732-14.137371 0.491201-28.300325 0.07675-43.926648 0.07675 0 45.27745 0.005117 86.957877 0 128.638305-0.005117 40.171009-0.035817 39.009524-41.225044 39.930525-21.096048 0.475851-26.038755-7.470344-25.547554-26.929056C261.098766 592.704022 260.305681 546.751172 260.305681 497.017099zM260.346615 711.293179c19.039145 0 35.719502-0.455384 52.33846 0.317234 4.211023 0.194434 11.957668 4.671524 11.763234 6.518643-1.601519 15.293739-1.268935 32.460181-8.606246 44.868116-4.425923 7.485694-24.242802 13.247069-32.178764 9.440264-10.345915-4.963174-17.514376-19.417778-22.69245-31.257762C257.639894 733.555829 260.346615 723.296897 260.346615 711.293179zM550.042472 540.872113c127.73777 0 252.64602 0 381.002908 0 0-19.632679 0-38.912307 0-58.197052 0-54.548863 0.2149-109.102843-0.056283-163.651706-0.368401-75.097427-56.580183-141.716524-130.444491-155.106861-37.530805-6.80006-37.530805-6.80006-37.535922-45.6612 0-37.505222 0.721451-75.025793-0.29165-112.505431-0.516784-19.085195 6.748893-26.013171 25.481037-25.06147 21.254664 1.079618 42.893079 2.21552 63.774227-0.777734 8.580663-1.228002 15.626323-13.175436 23.367851-20.24668-7.501044-7.547094-14.858822-21.479798-22.5236-21.653765-74.115025-1.657802-148.296567-1.657802-222.416709-0.066517-7.982012 0.173967-20.778814 12.438635-22.395683 20.819747-2.844871 14.741138 8.391346 22.441733 23.961385 22.206366 20.451347-0.312117 40.95386 0.787968 61.35404-0.281417 18.39956-0.967051 26.258772 5.249708 25.834088 24.662369-0.967051 44.300165-0.593534 88.641263-0.143267 132.961895 0.143267 13.978754-3.187688 19.960146-19.243812 22.590116-99.903063 16.383591-149.688303 76.217978-149.729236 177.088093C550.027122 395.957668 550.042472 453.919352 550.042472 511.881037 550.042472 521.0552339999999 550.042472 530.229431 550.042472 540.872113zM742.081487 497.006866c-41.721361 0-83.452956-0.434917-125.164083 0.225134-15.442123 0.2456-21.270014-5.572058-21.121631-20.916964 0.521901-52.788727-1.120552-105.628621 0.680518-158.361065 1.882936-55.183331 36.967971-96.868875 91.440084-107.849258 24.652136-4.968291 50.716474-3.868206 76.141228-3.883556 69.213251-0.035817 119.960426 49.048439 121.280528 117.755139 0.967051 50.220157-0.440034 100.486364 0.726568 150.696287 0.434917 18.701444-6.76936 23.081317-23.930685 22.651517C822.136971 496.336581 782.098996 497.017099 742.081487 497.006866zM294.024564 261.51705400000003c16.951541 0.01535 34.419867 2.49182 50.649958-0.915885 9.767731-2.051786 17.616709-13.262419 26.330405-20.359246-7.971778-7.997362-15.503523-22.298466-23.997202-22.897117-36.256753-2.563454-72.90749-2.558337-109.164243 0.040933-8.289012 0.593534-15.570039 15.222106-23.316684 23.388318 7.854095 6.90751 14.945805 18.29211 23.726018 19.796412C256.365842 263.67117399999995 275.379403 261.501704 294.024564 261.51705400000003zM292.924479 149.68702299999995c17.89301-0.010233 36.220936 2.29227 53.505062-0.956818 8.959296-1.683386 20.681597-11.947434 22.99945-20.533213 4.047289-15.002089-7.813161-23.879518-22.385449-24.176285-36.625154-0.747034-73.383341-1.724319-109.824294 0.997751-8.104812 0.603768-15.099305 16.07659-22.610583 24.698186 8.212262 6.656793 15.682606 17.473442 24.790286 19.085195C256.749593 151.871843 275.026353 149.69214 292.924479 149.68702299999995z"  horiz-adv-x="1024" />

    
    <glyph glyph-name="mingpian" unicode="&#59049;" d="M128 652.8l0-512 768 0 0 512L128 652.8zM864 172.8l-704 0 0 448 704 0L864 172.8zM435.2 460.8 640 460.8c19.2 0 32 12.8 32 32L672 499.2c0 19.2-12.8 32-32 32L435.2 531.2C422.4 524.8 409.6 512 409.6 499.2l0-6.4C409.6 473.6 422.4 460.8 435.2 460.8zM441.6 281.6l345.6 0c19.2 0 32 12.8 32 32l0 0c0 19.2-12.8 32-32 32L441.6 345.6c-19.2 0-32-12.8-32-32l0 0C409.6 294.4 422.4 281.6 441.6 281.6zM211.2 531.2l128 0 0-256-128 0 0 256Z"  horiz-adv-x="1024" />

    
    <glyph glyph-name="16" unicode="&#58884;" d="M872.181356 661.739133h-68.845026v87.332299c0 46.260163-37.630857 83.892044-83.892044 83.892044H299.987137c-46.260163 0-83.892044-37.630857-83.892044-83.892044v-87.332299h-68.845025c-45.332523 0-82.226183-36.89366-82.226183-82.252803v-324.916698c0-45.332523 36.89366-82.226183 82.226183-82.226182h68.845025v-150.251076c0-46.260163 37.630857-83.892044 83.892044-83.892044h419.458173c46.260163 0 83.892044 37.630857 83.892044 83.892044V172.34344999999996h68.845026c45.332523 0 82.226183 36.89366 82.226182 82.226182V579.485306c-0.001024 45.360168-36.894684 82.253828-82.227206 82.253827z m-600.158575 87.332299c0 15.428928 12.534404 27.964356 27.964356 27.964356h419.458173c15.428928 0 27.964356-12.534404 27.964356-27.964356v-87.332299H272.022781v87.332299z m475.385861-726.979058c0-15.428928-12.534404-27.963332-27.964356-27.963332H299.987137c-15.428928 0-27.964356 12.534404-27.964356 27.963332V307.301774H747.408642v-285.2094z m151.071208 232.477258c0-14.501288-11.797207-26.298495-26.298494-26.298494h-68.845026V335.26613c0 15.456573-12.507783 27.963332-27.964356 27.963332H244.059449c-15.456573 0-27.964356-12.506759-27.964356-27.963332v-106.994992h-68.845025c-14.501288 0-26.298495 11.797207-26.298495 26.298494V579.485306c0 14.527909 11.797207 26.325116 26.298495 26.325115h724.930264c14.500264 0 26.298495-11.797207 26.298494-26.325115v-324.915674zM792.050042 498.242053m-51.887436 0a51.887437 51.887437 0 1 1 103.774873 0 51.887437 51.887437 0 1 1-103.774873 0Z"  horiz-adv-x="1024" />

    
    <glyph glyph-name="bars" unicode="&#58896;" d="M173.708 576.047h673.184c35.347 0 64 28.654 64 64s-28.653 64-64 64H173.708c-35.346 0-64-28.654-64-64s28.653-64 64-64zM846.892 446.283H173.708c-35.346 0-64-28.654-64-64 0-35.346 28.654-64 64-64h673.184c35.347 0 64 28.654 64 64 0 35.346-28.654 64-64 64zM846.892 191.835H173.708c-35.346 0-64-28.654-64-64s28.654-64 64-64h673.184c35.347 0 64 28.654 64 64s-28.654 64-64 64z"  horiz-adv-x="1024" />

    
    <glyph glyph-name="31" unicode="&#58927;" d="M610.26985-127.14739299999997a47.746003 47.746003 0 0 0-35.212677 14.068019 61.899282 61.899282 0 0 0-16.370058 41.43671V109.02480100000002C411.697634 188.65831300000002 365.571585 244.16304100000002 334.280901 280.91041099999995c-12.533326 14.835365-21.144658 24.981391-32.058031 31.97277-3.154647 2.3873-5.456686 2.3873-7.843986 2.3873-17.137405 0-48.428089-32.058031-78.951426-63.348714-17.904751-18.757358-39.04941-40.584103-61.728761-60.961415-39.902017-35.127416-71.874787-51.582735-98.476131-51.582735A51.326953 51.326953 0 0 0 16.258417 155.91819599999997c-12.533326 13.215412-17.222665 33.592724-15.687973 58.574115 3.154647 35.980024 30.523338 101.630778 53.202689 150.911473 5.456686 13.215412 5.456686 22.594091 3.836733 28.136038C33.395821 446.57199 3.725091 516.9120829999999 0.570444 553.659453c-2.302039 24.981391 3.154647 45.358703 14.835366 58.574115a51.326953 51.326953 0 0 0 39.13467 16.455319c26.516084 0 58.574114-17.222665 98.476131-51.582736 23.446698-20.377312 43.738749-42.204056 62.496107-60.961414 30.523338-31.290684 60.961415-63.348715 78.951427-63.348715 1.534693 0 3.921993 0 7.843986 2.3873 11.680719 6.991379 20.292051 17.904751 31.97277 31.97277 31.290684 36.74737 77.416733 92.252099 224.406214 171.970872V840.561775c0 3.921993 0.767346 25.833998 16.370058 41.43671A47.746003 47.746003 0 0 0 610.18459 895.981243c21.144658 0 44.591356-10.913372 74.262086-33.592724 14.835365-11.765979 139.912841-108.622157 183.736851-153.213513 100.010824-9.378679 321.262392-49.195435 447.021953-230.544986 16.455319-23.446698 33.677984-60.194068 33.677984-94.639399 0-34.36007-17.222665-71.10744-33.677984-94.554138-125.759561-180.496943-347.011129-221.166307-447.021953-230.544986-43.82401-44.591356-168.816225-141.532795-183.736851-153.213513-29.67073-21.912005-53.884775-32.825377-74.176826-32.825377zM295.231491 371.62781700000005a66.503361 66.503361 0 0 0 37.514717-11.765979c17.904751-11.765979 30.523338-26.601345 44.591356-42.971403 28.903384-35.212677 73.40948-87.562759 221.933653-166.514185l14.835366-7.843987v-213.407581c5.541947 1.619954 17.222665 6.309293 36.74737 21.912005 42.204056 32.825377 157.902853 125.077476 183.736851 154.833467l6.991379 8.526072 10.998632 0.852607c85.942805 6.224033 299.265126 39.816756 416.583877 207.865635 11.680719 17.222665 23.446698 42.971403 23.446697 63.348714 0 20.292051-11.765979 46.040789-23.446697 63.263454-117.233489 168.048878-330.641071 201.726863-416.583877 208.036156l-10.998632 0.682086-6.991379 8.611332c-25.833998 29.755991-141.532795 121.922829-183.736851 154.748207-20.292051 15.687972-32.058031 20.377312-36.66211 21.912005v-214.857014l-14.920626-7.843986c-148.524174-78.951426-193.030269-132.154115-221.933653-166.514186-14.068019-16.370058-25.833998-31.290684-44.591356-42.971402a66.503361 66.503361 0 0 0-37.514717-11.76598c-40.669363 0-75.029433 35.212677-118.000836 79.718773-18.757358 18.757358-37.514717 39.13467-59.426721 57.892029-38.282063 33.592724-56.272075 37.514717-61.728761 38.367324a37.344195 37.344195 0 0 1-0.852607-14.920626c2.3873-22.679351 21.912005-76.564126 53.202689-143.834834l1.534693-3.069386c4.68934-14.920626 7.07664-38.367324-6.224033-68.805401-28.988645-62.581368-46.893396-112.54415-48.428089-133.688808-0.852607-8.526072 0-13.300672 0.767347-14.835365 6.224033 0.852607 24.214044 5.456686 61.728761 38.367323 21.144658 18.757358 40.669363 38.196802 58.659375 57.806768 43.738749 42.971403 78.098819 78.951426 118.768182 78.951427v-0.170522z m802.729676-82.95868c-52.350082 0-94.639399 42.971403-94.639399 96.174092 0 53.117428 42.289317 96.174092 94.639399 96.174091 52.350082 0 94.639399-43.056663 94.639398-96.174091 0-52.350082-42.289317-96.174092-94.639398-96.174092z m0 138.378148a40.925145 40.925145 0 0 1-39.816757-41.43671c0-22.679351 17.904751-41.43671 39.816757-41.43671a40.925145 40.925145 0 0 1 39.902016 41.43671 40.925145 40.925145 0 0 1-39.902016 41.43671z"  horiz-adv-x="1364" />

    
    <glyph glyph-name="bookmark" unicode="&#58887;" d="M695.7 777.4H326.9c-58.2 0-105.4-47.2-105.4-105.4v-579.6c0-58.2 47.2-105.4 105.4-105.4l184.4 184.4L695.7-13c58.2 0 105.4 47.2 105.4 105.4V672c0 58.2-47.1 105.4-105.4 105.4z"  horiz-adv-x="1024" />

    
    <glyph glyph-name="12" unicode="&#59522;" d="M957.6 323.20000000000005l-120.8 181.6c-3.2 4.8-8 7.2-13.6 7.2H704V672c0 17.6-14.4 32-32 32H96c-17.6 0-32-14.4-32-32v-448c0-17.6 14.4-32 32-32h32c0-70.4 57.6-128 128-128s128 57.6 128 128h256c0-70.4 57.6-128 128-128s128 57.6 128 128h32c17.6 0 32 14.4 32 32V314.4c0 3.2-0.8 6.4-2.4 8.8zM256 128c-35.2 0-64 28.8-64 64s28.8 64 64 64 64-28.8 64-64-28.8-64-64-64z m384 128H366.4c-22.4 38.4-63.2 64-110.4 64s-88.8-25.6-110.4-64H128V640h512v-384z m128-128c-35.2 0-64 28.8-64 64s28.8 64 64 64 64-28.8 64-64-28.8-64-64-64z m128 128h-17.6c-22.4 38.4-63.2 64-110.4 64-23.2 0-44.8-6.4-64-17.6V448h95.2c5.6 0 10.4-2.4 12.8-7.2l80.8-116.8c1.6-2.4 3.2-5.6 3.2-8.8V256z"  horiz-adv-x="1024" />

    
    <glyph glyph-name="42" unicode="&#58933;" d="M512 176.04923099999996c-206.375385 0-425.353846 66.166154-425.353846 189.046154s218.978462 189.046154 425.353846 189.046153 425.353846-66.166154 425.353846-189.046153-218.978462-189.046154-425.353846-189.046154z m0 315.076923c-224.492308 0-362.338462-73.255385-362.338462-126.030769s137.846154-126.030769 362.338462-126.03077 362.338462 73.255385 362.338462 126.03077-137.846154 126.030769-362.338462 126.030769zM673.476923-16.935384999999997c-40.172308 0-87.433846 20.48-137.846154 59.864616-66.166154 51.987692-132.332308 132.332308-186.683077 226.855384-103.187692 178.806154-155.175385 401.723077-48.836923 463.163077 106.338462 61.44 273.329231-95.310769 376.516923-274.116923 54.350769-94.523077 91.372308-192.196923 103.187693-275.692307 13.390769-92.947692-5.513846-159.113846-54.35077-187.47077-15.753846-7.876923-33.083077-12.603077-51.987692-12.603077zM330.830769 678.5969230000001c-45.686154-25.993846-40.172308-182.744615 71.68-376.516923C453.710769 213.85846200000003 514.363077 139.815385 574.227692 92.55384600000002c50.412308-40.172308 95.310769-55.138462 118.941539-41.747692 23.630769 13.390769 32.295385 59.864615 23.630769 123.667692-11.027692 75.618462-44.898462 165.415385-95.310769 252.849231C508.849231 622.6707690000001 376.516923 705.378462 330.830769 678.5969230000001zM350.523077-16.935384999999997c-18.904615 0-36.233846 4.726154-51.2 13.39077-106.338462 61.44-54.350769 284.356923 48.836923 463.163077S618.338462 794.387692 724.676923 732.947692c106.338462-61.44 54.350769-284.356923-48.836923-463.163077-54.350769-94.523077-121.304615-174.867692-186.683077-226.855384-51.2-39.384615-98.461538-59.864615-138.633846-59.864616z m322.953846 700.258462c-57.501538 0-171.716923-84.283077-270.178461-255.212308-111.852308-194.56-117.366154-350.523077-71.68-376.516923 23.630769-13.390769 68.529231 1.575385 118.941538 41.747692 59.864615 47.261538 120.516923 121.304615 171.716923 208.738462 111.064615 194.56 116.578462 350.523077 70.892308 376.516923-5.513846 3.150769-12.603077 4.726154-19.692308 4.726154zM708.923077 706.166154m-78.769231 0a78.769231 78.769231 0 1 1 157.538462 0 78.769231 78.769231 0 1 1-157.538462 0Z"  horiz-adv-x="1024" />

    
    <glyph glyph-name="delete" unicode="&#58890;" d="M382.320274 490.642286v-384a20.626286 20.626286 0 0 0-21.577143-21.284572H317.44256a20.626286 20.626286 0 0 0-21.577143 21.357715v384a20.626286 20.626286 0 0 0 21.577143 21.284571h43.154286a20.626286 20.626286 0 0 0 21.577143-21.357714h0.073142z m172.909715 0v-384a20.626286 20.626286 0 0 0-21.650286-21.284572h-43.154286a20.626286 20.626286 0 0 0-21.577143 21.357715v384a20.626286 20.626286 0 0 0 21.577143 21.284571h43.154286a20.626286 20.626286 0 0 0 21.577143-21.357714z m172.909714 0v-384a20.626286 20.626286 0 0 0-21.650286-21.284572h-43.154286a20.626286 20.626286 0 0 0-21.577142 21.357715l-0.073143 384a20.626286 20.626286 0 0 0 21.577143 21.284571h43.227428a20.626286 20.626286 0 0 0 21.577143-21.357714z m86.381714-482.669715V640H209.483703v-631.954286a74.825143 74.825143 0 0 1 14.482286-45.056c3.364571-3.803429 5.778286-5.632 7.094857-5.632h561.883428c1.316571 0 3.657143 1.828571 7.094857 5.632a74.825143 74.825143 0 0 1 14.555429 44.982857zM360.743131 725.357714h302.518858l-32.402286 77.970286a19.017143 19.017143 0 0 1-11.483429 7.314286H405.287131a19.017143 19.017143 0 0 1-11.483428-7.314286l-33.060572-77.970286zM987.431131 704v-42.642286a20.626286 20.626286 0 0 0-21.577142-21.357714h-64.877715v-631.954286c0-36.937143-10.532571-68.754286-31.744-95.744-21.211429-26.843429-46.592-40.301714-76.288-40.301714H231.060846c-29.696 0-55.149714 13.019429-76.288 38.985143-21.211429 26.038857-31.744 57.490286-31.744 94.354286V640H58.151131A20.626286 20.626286 0 0 0 36.573989 661.357714v42.642286a20.626286 20.626286 0 0 0 21.577142 21.357714h208.676572L314.151131 836.681143c6.729143 16.457143 18.870857 30.427429 36.425143 41.984 17.554286 11.556571 35.401143 17.334857 53.394286 17.334857h216.064c17.993143 0 35.84-5.778286 53.394286-17.334857 17.554286-11.556571 29.696-25.6 36.425143-41.984l47.323428-111.323429h208.676572a20.626286 20.626286 0 0 0 21.577142-21.357714z"  horiz-adv-x="1024" />

    
    <glyph glyph-name="03" unicode="&#59017;" d="M987.52 798.08C983.04 801.92 875.584 895.68 637.184 895.68c-234.368 0-353.664-107.648-358.656-112.256a39.104 39.104 0 0 1-12.608-28.8v-61.056H40.384a39.168 39.168 0 0 1-37.12-51.584l99.392-296.512-98.24-325.12a39.168 39.168 0 0 1 37.504-50.432h130.048a39.168 39.168 0 1 1 0 78.272H94.656l86.592 286.592a39.04 39.04 0 0 1-0.384 23.808l-86.08 256.64h210.304a39.168 39.168 0 0 1 39.168 39.168v81.28c12.352 8.832 33.6 22.4 63.552 35.904 84.032 37.76 171.136 45.76 229.376 45.76 107.84 0 183.296-21.248 227.584-39.104 27.008-10.88 46.08-21.76 57.536-29.312v-761.728a305.408 305.408 0 0 0-36.096-11.712c-42.24-11.136-119.68-24.384-249.024-24.384-123.52 0-201.344 12.16-244.864 22.4a364.16 364.16 0 0 0-48.064 14.464v495.36a39.168 39.168 0 1 1-78.336 0v-519.936c0-12.8 6.272-24.768 16.768-32.128 8.576-5.952 91.328-58.496 354.496-58.496 110.528 0 201.088 9.088 269.056 27.008 52.48 13.824 73.984 28.544 79.36 32.768a39.168 39.168 0 0 1 14.976 30.848V768.832a39.104 39.104 0 0 1-13.056 29.184z m-273.728-115.712a39.168 39.168 0 0 1 0 78.272H544.64a39.168 39.168 0 1 1 0-78.272h169.152z"  horiz-adv-x="1024" />

    
    <glyph glyph-name="04" unicode="&#59018;" d="M978.816 729.7280000000001h44.352v-99.712h-44.352m-12.352 27.008h30.016v45.184H966.4M154.24 676.736V823.04c0 1.792 0.448 3.456 1.216 4.928C168.96 865.472 347.904 895.168 566.592 895.168c226.048 0 409.536-31.744 411.968-71.04v-0.256l0.064-0.512V647.6800000000001l0.192-8.64v-656.448l-0.192 9.728a13.056 13.056 0 0 0 0.192-2.24c0-39.488-183.936-74.24-410.816-74.24-226.88 0-410.816 34.752-410.816 74.24 0 0.768 0.128 1.472 0.256 2.24l-3.008 9.728 0.64 146.816-1.28 15.808V673.92l0.512 2.816z m42.112-27.648v-447.168l1.216-13.824-0.64-128.96 2.688-8.512a11.392 11.392 0 0 1-0.192-1.92c0-34.752 163.136-64.256 364.352-64.256 201.216 0 364.352 29.504 364.352 64.192a11.52 11.52 0 0 1-0.192 1.92l0.192-8.512V618.432l-0.192 7.616V780.032v0.192 0.064V780.8v0.256c-2.24 34.56-164.928 62.336-365.44 62.336-193.92 0-352.64-26.048-364.608-59.008-0.64-1.28-1.024-2.688-1.024-6.72v-128.512h-0.512zM610.688 529.7280000000001c143.872 3.328 354.048 29.184 354.048 62.592v-272 8c-17.088-31.936-136.128-75.328-354.048-75.328l-23.552 1.344c-217.92 0-383.424 49.792-394.496 75.328v257.28c0-33.408 266.048-53.12 394.496-57.216h23.552z m-35.2-51.392c-116.288 2.816-357.12 22.528-357.12 45.312v-159.104c10.048-17.472 159.872-54.784 357.12-54.784h21.312c197.248 0 320.384 30.272 335.808 52.096v-5.44 165.888c0-22.784-205.568-41.664-335.808-43.968h-21.312zM189.056 199.67999999999995c-43.136 22.464-51.904 38.016-78.208 75.264l-4.672 11.648C25.984 409.6 66.048 559.104 192.64 644.8l-5.824 0.256v57.92L160 702.72v-24.064C92.544 638.4 42.944 581.76 18.112 515.264v-2.688C-12.352 431.36-2.112 345.28 46.72 270.27200000000005c33.6-51.456 82.624-93.504 142.272-122.88M964.736 770.112c-51.712-46.016-210.624-79.488-395.456-79.488-185.152 0-348.416 33.6-399.744 79.808v55.104c51.328-46.144 214.592-79.744 399.744-79.744 184.832 0 343.744 33.472 395.456 79.488v-55.168"  horiz-adv-x="1024" />

    
    <glyph glyph-name="06" unicode="&#59019;" d="M805.2128 411.328c-0.768 2.24-0.768 3.008-1.536 3.776-14.4 30.336-29.568 60.736-43.968 91.072-2.304 5.312-6.08 5.312-10.624 3.84-31.168-9.152-62.272-17.472-93.44-25.856-4.48-1.536-7.552-3.84-8.32-8.32-6.784-22.784-13.632-44.8-20.48-67.584-3.008-10.624-6.08-22.016-9.856-33.408 63.744 12.16 126.016 24.32 188.224 36.48zM347.5488 759.6800000000001c2.24-2.24 3.776-3.008 4.48-4.544L629.9808 534.2719999999999c2.24-2.304 7.552-3.072 11.328-2.304 21.312 5.312 42.56 11.392 63.808 17.472 3.008 0.768 6.08 2.304 10.624 3.008-22.784 17.472-44.032 33.408-65.28 50.112-73.6 56.96-147.264 113.088-220.864 170.048-2.304 1.472-6.08 3.84-8.32 3.84-24.32-4.608-47.872-10.688-73.664-16.768z m219.328-373.44c1.536 3.84 3.072 6.08 3.072 8.32 9.088 29.632 17.408 60.032 27.328 89.6 3.008 8.32 0.704 12.16-6.08 17.472-77.44 61.44-154.88 122.944-231.552 183.68-19.712 15.936-39.424 31.104-59.2 47.04-1.472-2.24-2.24-4.544-3.008-6.848-11.392-28.032-22.784-56.128-34.944-84.224-3.008-6.848-2.24-10.624 3.84-15.168 81.216-64.512 162.432-129.792 243.648-195.072 18.944-14.4 37.12-29.632 56.96-44.8z m-114.56 434.944c19.712-14.464 219.328-170.048 330.112-255.808 4.608-3.84 8.32-8.32 10.624-12.928 23.552-48.576 47.872-97.152 70.592-146.496 8.32-18.176 1.536-34.112-21.248-37.888-32.64-6.08-66.048-12.928-98.624-19.008-40.96-7.616-81.984-15.168-122.24-23.552-11.392-2.24-22.016-3.776-33.408-6.784-9.856-3.072-16.64 0.704-23.488 6.016l-112.384 89.6C373.3408 477.312 295.1328 540.352 216.2208 603.328c-12.928 10.624-15.168 19.008-9.088 34.176 18.944 45.504 37.952 91.84 56.128 137.344a36.096 36.096 0 0 0 28.8 25.088c32 6.784 92.672 22.016 124.544 28.8 10.624 2.304 13.632 3.84 21.248 2.304 6.08-2.304 9.856-6.848 14.4-9.856z m-32.64-752.96c65.984 12.864 130.56 25.792 195.008 38.72-16.64 43.264-32.64 84.992-49.28 126.72a3678.72 3678.72 0 0 1-108.544-32.64 10.24 10.24 0 0 1-6.848-6.784c-9.856-40.96-19.776-82.752-30.4-126.08z m-47.872 13.632c2.304 9.92 3.84 19.008 6.08 27.328l22.784 95.68c1.536 4.48 0 6.784-3.072 9.856C311.0688 291.39200000000005 225.3088 368.76800000000003 139.5488 445.44c-11.392 9.856-22.784 20.48-34.88 31.104-16-38.656-31.168-76.608-46.336-114.56-0.768-2.304 1.536-6.848 3.072-9.152 12.864-12.16 26.56-23.488 40.192-35.648l215.552-188.224c18.24-14.464 35.712-30.4 54.656-47.104zM144.0928 508.48c13.696-12.16 25.856-23.552 38.72-34.944 44.032-39.488 88.832-78.912 132.864-119.168 37.952-34.176 76.608-68.288 114.56-103.232 3.84-3.008 6.848-3.84 12.16-2.24 40.96 12.16 81.984 24.96 123.712 36.416 22.784 6.848 32.64 0.768 40.96-19.776 21.312-55.36 42.56-110.08 63.808-165.44 7.616-19.712 0-34.176-20.48-38.72-72.896-14.4-144.96-28.8-217.856-43.264-14.4-3.008-28.096-6.08-42.496-8.32-7.616-1.536-14.4 1.472-20.48 6.784L230.6208 137.27999999999997c-59.264 51.648-117.696 103.232-176.896 154.112-14.4 12.16-28.096 24.32-42.496 37.12-12.16 10.688-13.696 19.008-7.616 34.176 22.016 53.952 44.032 107.84 65.28 160.96a33.6 33.6 0 0 0 21.248 20.48c30.4 9.088 60.736 18.944 91.072 28.096 11.392 3.84 22.016 3.008 30.4-6.848 12.16-13.632 6.08-34.176-12.16-40.96-14.4-5.312-29.568-9.152-44.032-13.696-3.008 0.768-6.848-0.768-11.392-2.24z m629.248-371.2c62.976 12.928 125.248 26.56 187.52 39.488-20.48 37.184-40.32 72.832-59.968 108.544-0.768 2.24-5.376 3.84-8.384 3.008-28.096-5.312-56.96-11.392-84.992-16.64-6.08-1.536-8.32-3.84-9.856-9.92-4.608-23.552-9.92-47.808-14.464-71.36-3.008-16.64-6.08-34.112-9.856-53.12z m138.88 205.696c11.392 0 18.24-6.08 23.552-15.936 22.784-40.96 45.568-82.752 68.288-123.712 5.312-9.856 10.624-19.008 16-28.8 9.856-19.008 1.472-36.48-19.008-40.32-62.272-12.8-124.48-26.496-186.752-39.424-23.488-5.312-47.808-11.392-71.296-14.4-14.464-2.304-29.632 12.864-26.56 29.568l31.872 156.352c2.24 9.856 3.776 19.008 5.312 28.864 2.24 12.928 10.624 19.712 23.488 22.784 34.176 6.784 68.352 13.632 103.232 20.48 10.624 0.768 21.248 2.304 31.872 4.544z"  horiz-adv-x="1024" />

    
    <glyph glyph-name="08" unicode="&#59020;" d="M833.92-127.10400000000004a189.952 189.952 0 0 0-189.696 185.856L354.56 348.352a106.24 106.24 0 0 0-29.248 55.36l-93.12-31.808c-33.28-11.392-80.128-0.064-104.768 24.512L29.568 494.208C4.48 519.296-6.272 565.376 5.12 599.04l20.096 58.752c6.784 19.84 20.608 33.536 37.824 37.632a47.616 47.616 0 0 0 10.88 1.28c9.92 0 24.96-3.2 40.064-18.176l62.72-62.848a26.24 26.24 0 0 1 36.608-0.128l67.52 67.52a25.984 25.984 0 0 1 0.064 36.608l-62.848 62.72c-14.848 14.72-21.12 33.216-17.088 50.688 4.16 17.536 17.856 31.36 37.632 38.144l58.688 20.032c33.472 11.392 80.192 0.128 104.896-24.448l97.856-97.92c25.152-25.152 35.904-71.168 24.448-104.832L492.672 570.88c20.928-3.84 40.064-13.952 55.36-29.184l289.6-289.6a189.888 189.888 0 0 0 185.92-189.696 189.952 189.952 0 0 0-189.696-189.568zM406.4 489.92l-17.664-51.712a43.712 43.712 0 0 1 10.112-45.504l309.248-309.248-1.088-16.704c-0.064-1.408-0.256-2.816-0.256-4.224 0-70.016 57.024-126.976 127.104-126.976 70.016 0 126.976 56.96 126.976 126.976 0 70.016-56.96 127.04-126.976 127.04-1.408 0-2.752-0.128-4.096-0.192l-16.896-1.088-309.12 309.248a44.608 44.608 0 0 1-45.632 10.112l-51.712-17.728zM80 624l-15.552-45.056c-3.776-11.2 1.088-32 9.472-40.32l97.92-97.92c5.12-5.12 17.792-10.688 30.976-10.688a29.76 29.76 0 0 1 9.216 1.28l188.8 64.384L465.28 684.288c3.84 11.2-1.088 32-9.536 40.384L357.888 822.528C352.64 827.712 339.968 833.28 326.848 833.28A30.528 30.528 0 0 1 317.44 832l-44.928-15.36 52.672-52.736a88.64 88.64 0 0 0 0-125.12L257.536 571.264a87.68 87.68 0 0 0-62.4-25.792c-23.68 0-46.08 9.152-62.72 25.984l-52.544 52.48z m753.92-657.408c-52.928 0-96 43.072-96 96 0 25.728 9.984 49.92 28.16 67.968a96.192 96.192 0 0 0 163.84-67.968c0-52.928-43.008-96-96-96z m0 129.408c-8.96 0-17.28-3.52-23.552-9.792a33.408 33.408 0 1 1 23.552 9.792z"  horiz-adv-x="1024" />

    
    <glyph glyph-name="44" unicode="&#59028;" d="M916.032 92.60799999999995v41.408c0 84.288-69.12 152.96-154.112 152.96h-9.92a153.728 153.728 0 0 1-154.176-152.96v-108.608c0-46.208-37.888-83.84-84.48-83.84h-9.984c-46.592 0-84.48 37.632-84.48 83.84v203.392h28.8v30.784c173.76 16 209.408 226.816 235.52 381.632l6.08 35.776c12.224 69.632 3.2 123.52-26.88 160.32a118.208 118.208 0 0 1-83.2 43.2h-53.696a48.832 48.832 0 0 1-35.392 15.232 48.768 48.768 0 0 1-48.96-48.64 48.768 48.768 0 0 1 81.92-35.648h54.08a49.664 49.664 0 0 0 31.168-17.728c16.64-20.224 20.864-56.512 12.416-104.96l-6.208-36.16c-29.248-173.44-60.608-308.16-166.912-323.456v27.904h-130.56v-28.672c-110.976 11.072-142.976 147.52-172.8 324.224a5641.408 5641.408 0 0 1-6.144 36.224c-8.32 47.68-4.288 83.648 11.712 104.064a49.792 49.792 0 0 0 31.936 18.56h54.016a48.768 48.768 0 0 1 81.92 35.712 48.768 48.768 0 0 1-48.96 48.512c-13.44 0-26.24-5.44-35.392-15.168h-53.76a118.336 118.336 0 0 1-83.136-43.2c-30.08-36.736-39.104-90.688-26.88-160.32l6.08-35.84c26.432-156.544 62.592-370.24 241.472-382.016v-30.336h32.128v-203.392c0-84.288 69.12-152.96 154.112-152.96h9.92a153.728 153.728 0 0 1 154.176 152.96v108.608c0 46.208 37.888 83.84 84.48 83.84h9.984c46.592 0 84.48-37.632 84.48-83.84v-42.048c-44.672-14.784-76.992-56.64-76.992-106.048 0-61.76 50.432-111.808 112.64-111.808 62.272 0 112.768 50.048 112.768 111.808a112 112 0 0 1-78.72 106.688z m-33.92-143.68a36.736 36.736 0 1 0-22.144 66.624h44.288a36.736 36.736 0 0 0-22.144-66.56z"  horiz-adv-x="1024" />

    
    <glyph glyph-name="13" unicode="&#59021;" d="M958.08 515.392H677.12V439.68H364.48l-19.456-45.12-31.744-95.616-41.28-124.416-41.408-124.672H79.104l98.368 296.448 23.168 69.632-46.72 23.744V589.312c0 7.808 6.4 22.656 14.272 22.656H958.08v-96.64z m-12.16 188.352a32.64 32.64 0 0 1-32.32-28.288H181.248c-52.928 0-95.872-42.88-95.872-95.872v-164.416c0-18.432 10.368-35.328 26.816-43.648L2.88 42.36800000000005a49.024 49.024 0 0 1 47.296-64.384h201.6c21.12 0 39.808 13.44 46.464 33.536l54.656 164.608c1.28-0.192 2.432-0.384 3.712-0.448 0.768-0.064 4.928-0.384 11.52-0.384 29.824 0 110.976 5.76 175.232 63.296 36.416 32.512 61.056 75.328 73.728 127.616h87.424a49.024 49.024 0 0 1 49.024 48.96v23.04h221.44A49.024 49.024 0 0 1 1024 487.232V626.496a48.96 48.96 0 0 1-45.632 48.832 32.64 32.64 0 0 1-32.384 28.48z m-579.2-469.44l45.184 136.064h145.792a204.16 204.16 0 0 0-53.184-79.872c-44.992-40.768-102.592-52.8-137.856-56.192z"  horiz-adv-x="1024" />

    
    <glyph glyph-name="15" unicode="&#59022;" d="M1015.936-84.096l-76.8 76.736c30.72 38.4 33.28 92.096 0 130.432L696.256 422.4c12.8 35.84 20.48 74.176 20.48 115.072 0 196.992-161.216 358.144-358.144 358.144C161.536 895.616 0.384 734.4639999999999 0.384 537.472c0-196.928 161.152-358.144 358.144-358.144 40.96 0 79.296 7.68 115.072 20.48l299.328-243.008c17.92-15.36 40.96-23.04 63.936-23.04 23.04 0 46.08 7.68 66.56 23.04l76.672-76.736c5.12-5.12 12.8-7.68 17.92-7.68 5.12 0 12.8 2.56 17.92 7.68 10.24 10.24 10.24 25.6 0 35.84zM57.984 538.88A300.032 300.032 0 0 0 357.12 838.016c72.32 0 139.584-27.392 192-69.76L127.744 346.88C85.376 399.296 57.984 466.56 57.984 538.88z m392.832-283.072c-28.8-9.6-60.16-9.856-88.96-9.856-69.632 0-131.84 15.552-182.272 56.384L590.08 708.992c43.2-50.432 59.904-105.216 59.904-174.848 0-28.8-3.776-62.912-13.376-91.712l-185.856-186.624z m437.824-226.24l-22.144-22.144a48.576 48.576 0 0 0-34.432-14.72c-7.36 0-19.648 2.432-32 9.792L519.68 233.72799999999995l145.152 145.088 228.736-282.88c14.72-22.08 14.72-49.152-4.928-66.368z"  horiz-adv-x="1024" />

    
    <glyph glyph-name="17" unicode="&#59023;" d="M763.968 831.616h-4.16l1.216 21.888a39.872 39.872 0 0 1-39.872 42.24H104.64a39.808 39.808 0 0 1-39.872-42.112l50.304-873.344C115.84-79.36000000000001 164.224-128 223.68-128h378.304c59.52 0 108.096 48.256 108.672 107.84l26.176 451.84h27.136a200.192 200.192 0 0 1 200 200 200.192 200.192 0 0 1-200 199.872z m-65.728-9.088l-11.072-193.472h-548.48l-11.136 193.472h570.688z m-46.08-867.2a31.872 31.872 0 0 0-31.68-32.192h-415.36a31.872 31.872 0 0 0-31.488 32.192c0 0.768 0 1.472-0.128 2.24l-36.032 627.712h550.976l-36.224-627.712a12.928 12.928 0 0 1-0.128-2.24z m113.344 549.952h-25.344l16.064 262.4h9.28c70.784 0 128.32-57.28 128.32-127.936s-57.6-134.464-128.32-134.464z"  horiz-adv-x="1024" />

    
    <glyph glyph-name="18" unicode="&#59024;" d="M819.328 555.2V653.44a41.216 41.216 0 0 1-41.28 41.216H324.224c-61.184 0-110.976-49.792-110.976-110.976s49.792-99.52 110.976-99.52h552.064v-363.904c0-55.808-42.432-101.12-98.24-101.12H251.008c-55.808 0-116.032 45.312-116.032 101.12V647.36c0 55.744 57.216 115.84 113.024 115.84h527.04c55.808 0 101.248-60.096 101.248-115.84a41.216 41.216 0 0 1 82.496 0 183.872 183.872 0 0 1-183.68 183.68H247.936a183.872 183.872 0 0 1-183.68-183.68v-527.104a183.872 183.872 0 0 1 183.68-183.68h527.04a183.872 183.872 0 0 1 183.68 183.68V513.9839999999999a41.216 41.216 0 0 1-41.216 41.216h-98.176z m-82.496 0H324.224a28.544 28.544 0 0 0 0 56.96h412.608v-56.96z"  horiz-adv-x="1024" />

    
    <glyph glyph-name="22" unicode="&#59025;" d="M1019.968-16.960000000000036L531.008 881.088C530.752 881.728 529.92 882.112 529.536 882.688A26.496 26.496 0 0 1 522.24 890.176C521.28 890.88 520.32 891.648 519.36 892.16a27.52 27.52 0 0 1-12.928 3.584 26.944 26.944 0 0 1-13.056-3.648c-1.152-0.64-2.048-1.28-3.136-2.112a26.24 26.24 0 0 1-7.168-7.552c-0.384-0.64-1.088-0.896-1.472-1.6L3.968-17.216000000000008a28.096 28.096 0 0 1 24.768-41.152H995.264a28.032 28.032 0 0 1 24.704 41.408z m-357.376 14.72h-312.32l156.16 351.744 156.16-351.808zM594.88 288.384l162.752-165.632-49.152-89.92-113.6 255.552z m-290.432-255.552l-49.28 89.92L417.92 288.51199999999994l-113.472-255.616zM478.336 755.2V430.08L200.512 147.20000000000005a27.968 27.968 0 0 1-4.544-33.088l63.744-116.416h-184.32L478.4 755.2z m274.752-757.44l63.744 116.48a28.032 28.032 0 0 1-4.608 33.088L534.4 430.08V757.44l413.568-759.68h-194.944z"  horiz-adv-x="1024" />

    
    <glyph glyph-name="25" unicode="&#59026;" d="M989.888 508.928c-18.432 0-26.688 12.8-31.232 23.616l-0.256-0.064-2.048 6.208-0.64 1.728v0.128a35.904 35.904 0 0 0 19.904 45.312 32.832 32.832 0 0 0 42.688-21.12l0.832-2.24 1.92-5.824h-0.064c2.88-10.112 4.032-20.736-3.84-32.64a32.768 32.768 0 0 0-27.264-15.104zM761.792-63.80799999999999h-501.76c-47.744 0-86.592 41.344-86.592 92.16l43.392 369.792a252.48 252.48 0 0 1-10.048-13.056 32 32 0 0 0-36.992-12.288C112.192 393.088 2.624 454.592 0.64 542.4c-1.28 56.768 51.84 113.92 86.912 151.744l11.136 12.16c62.464 69.504 147.904 115.136 234.432 125.184a32.832 32.832 0 0 0 34.496-21.952C396.8 732.8 452.16 684.992 512 684.992c59.648 0 115.072 47.744 144.384 124.48a32.896 32.896 0 0 0 34.752 21.888c134.4-17.088 264.448-116.8 317.44-240.896 0.832-1.664 1.536-3.328 2.368-5.184l0.384 0.128 3.648-10.88c0.896-2.368 1.664-4.864 2.56-7.424a25.024 25.024 0 0 0 0.768-2.432c4.096-14.08 5.44-34.624-6.912-60.864-26.368-56.256-101.76-110.72-159.36-131.008a32.064 32.064 0 0 0-36.992 12.288 256.384 256.384 0 0 1-9.984 12.992l43.008-365.376c0.32-55.168-38.464-96.512-86.272-96.512zM260.032 515.8399999999999c6.912 0 13.888-2.368 19.648-6.912a36.544 36.544 0 0 0 13.44-32.896l-53.312-452.096c0.256-7.36 9.28-16.832 20.224-16.832h501.76c11.008 0 20.032 9.536 20.032 21.312l-53.056 447.616a36.48 36.48 0 0 0 13.312 32.896 31.872 31.872 0 0 0 33.664 3.648c27.904-13.696 55.744-39.808 76.16-63.872 56.32 26.88 102.208 77.248 102.72 94.976-37.248 103.36-140.16 190.08-247.616 213.312-42.24-88.704-115.2-142.72-195.008-142.72-80 0-152.96 54.144-195.2 143.168-62.976-13.056-123.84-48.64-169.984-99.968l-11.84-12.928c-20.48-22.016-68.416-73.728-67.712-100.352 0.704-32.96 54.912-73.728 102.592-95.552 20.48 24.064 48.32 50.304 76.352 64a31.808 31.808 0 0 0 13.824 3.2z"  horiz-adv-x="1024" />

    
    <glyph glyph-name="27" unicode="&#59027;" d="M860.416 174.91200000000003v102.4c-2.176 2.176-6.528 4.352-10.88 6.528-8.704 4.352-19.584 8.704-30.464 15.232-15.232 6.528-30.464 10.88-43.52 15.232-13.12 2.176-24 4.352-32.704 4.352-17.408 0-19.584 0-95.808-30.464-58.816-24-98.048-34.88-143.744-34.88-45.76 0-82.752 10.88-135.04 34.88C300.8 318.65599999999995 300.8 318.65599999999995 283.328 318.65599999999995c-6.528 0-13.056 0-19.584-2.176-15.232-2.176-32.64-8.704-52.288-17.408l-26.112-13.056a47.616 47.616 0 0 1-10.88-6.528l-10.88-8.704v-100.224c8.704 4.352 19.584 10.88 30.464 15.232 21.76 10.88 41.344 17.472 60.992 21.76 10.88 2.24 19.584 2.24 28.288 2.24 26.112 0 26.112 0 102.4-34.88 45.696-21.76 78.336-30.464 115.392-30.464 39.168 0 74.048 8.704 128.512 30.464 87.04 34.88 84.928 34.88 111.04 34.88 13.056 0 28.288-2.176 43.52-6.528 15.296-4.352 32.64-10.88 50.112-17.472 8.704-2.176 17.408-6.528 26.112-10.88z m0-50.048c-2.176 2.176-6.528 4.352-10.88 6.528-8.704 4.352-19.584 8.704-30.464 15.232-15.232 6.528-30.464 10.88-43.52 15.232-13.12 2.176-24 4.352-32.704 4.352-17.408 0-19.584 0-95.808-30.464-58.816-23.936-98.048-34.88-143.744-34.88-45.76 0-82.752 10.88-135.04 34.88-67.52 30.464-67.52 30.464-84.928 30.464-6.528 0-13.056 0-19.584-2.176-15.232-2.176-32.64-8.704-52.288-17.408l-26.112-13.056a47.616 47.616 0 0 1-10.88-6.528l-10.88-8.704v-82.752h696.832V124.79999999999995z m0 202.496v102.4c-2.176 2.176-6.528 4.352-10.88 6.528-8.704 4.352-19.584 8.704-30.464 15.232-15.232 6.528-30.464 10.88-43.52 15.232-13.12 2.176-24 4.352-32.704 4.352-17.408 0-19.584 0-95.808-30.464-58.816-24-98.048-34.88-143.744-34.88-45.76 0-82.752 10.88-135.04 34.88C300.8 471.04 300.8 471.04 283.328 471.04c-6.528 0-13.056 0-19.584-2.176-15.232-2.176-32.64-8.704-52.288-17.408l-26.112-13.056a47.616 47.616 0 0 1-10.88-6.528l-10.88-8.768v-100.16c8.704 4.352 19.584 10.88 30.464 15.232 21.76 10.88 41.344 17.472 60.992 21.76 10.88 2.24 19.584 2.24 28.288 2.24 26.112 0 26.112 0 102.4-34.88 45.696-21.76 78.336-30.464 115.392-30.464 39.168 0 74.048 8.704 128.512 30.464 87.04 34.88 84.928 34.88 111.04 34.88 13.056 0 28.288-2.176 43.52-6.528 15.296-4.352 32.64-10.88 50.112-17.472 8.704-2.176 17.408-6.528 26.112-10.88z m0 254.848c-2.176 2.176-6.528 4.352-10.88 6.528-8.704 4.352-19.584 8.704-30.464 15.232-15.232 6.528-30.464 10.88-43.52 15.232-13.12 2.176-26.176 4.352-34.88 4.352-17.408 0-19.584 0-95.808-30.464-58.88-24-98.048-34.88-143.744-34.88-45.76 0-82.752 10.88-135.04 34.88-65.28 30.464-65.28 30.464-82.752 30.464-6.528 0-13.056 0-19.584-2.176-15.232-2.176-32.64-8.704-52.288-17.408-8.704-4.352-17.408-8.704-26.112-15.232l-8.704-4.352-13.056-8.768V475.52c8.704 4.352 19.584 10.88 30.464 15.232 21.76 10.88 41.344 17.472 60.992 21.76 10.88 2.24 19.584 2.24 28.288 2.24 26.112 0 26.112 0 102.4-34.88 45.696-21.76 78.336-30.464 115.392-30.464 39.168 0 74.048 8.704 128.512 30.464 87.04 34.88 84.928 34.88 111.04 34.88 13.056 0 28.288-2.176 43.52-6.528 15.296-4.352 32.64-10.88 50.112-17.472 8.704-4.352 17.408-6.528 26.112-10.88v102.4z m0 50.048V732.4159999999999H163.584v-104.512c8.704 4.352 19.584 10.88 30.464 15.232 21.76 10.88 41.344 17.472 60.992 21.76 10.88 2.24 19.584 2.24 28.288 2.24 26.112 0 26.112 0 102.4-34.88 45.696-21.76 78.336-30.464 115.392-30.464 39.168 0 74.048 8.704 128.512 30.464 87.04 34.88 84.928 34.88 111.04 34.88 13.056 0 28.288-2.176 43.52-6.528 15.296-4.416 32.64-10.88 50.112-17.472 8.704-2.176 17.408-6.528 26.112-10.88zM142.208 800h739.584c25.408 0 46.208-20.8 46.208-46.208v-739.584a46.336 46.336 0 0 0-46.208-46.208H142.208a46.336 46.336 0 0 0-46.208 46.208V753.792c0 25.408 20.8 46.208 46.208 46.208z"  horiz-adv-x="1024" />

    
    <glyph glyph-name="37" unicode="&#59029;" d="M725.12 328.76800000000003a252.032 252.032 0 0 1 233.856 251.264c0 23.04-3.264 46.272-9.792 69.12a27.904 27.904 0 0 1-46.656 12.16l-48.256-48.384c-30.4-30.464-83.456-30.528-113.92 0a80.896 80.896 0 0 0 0 114.176l48.256 48.32a27.904 27.904 0 0 1-12.032 46.72 252.416 252.416 0 0 1-69.12 9.792 252.032 252.032 0 0 1-251.52-251.968c0-13.184 1.216-26.688 3.456-40.32l-33.088-30.336-159.744 160a84.096 84.096 0 0 1-16.256 95.488l-58.88 58.944a27.904 27.904 0 0 1-39.488 0L72.896 744.576a27.968 27.968 0 0 1 0-39.616l58.88-58.88a83.2 83.2 0 0 1 95.36-16.384l157.888-158.208-271.232-248.576a167.04 167.04 0 0 1-49.088-118.784c0-44.8 17.408-87.04 49.088-118.72a166.4 166.4 0 0 1 118.592-49.216c44.8 0 86.912 17.472 119.36 50.112l190.72 208.768 225.728-226.048c21.12-21.184 49.152-32.832 79.04-32.832a110.72 110.72 0 0 1 78.976 32.832c21.12 21.12 32.768 49.216 32.768 79.104a111.36 111.36 0 0 1-32.704 79.168L725.12 328.76800000000003zM210.752 685.6320000000001a28.544 28.544 0 0 0-39.488 0l-39.104 39.168 39.488 39.552 39.104-39.104c10.88-10.944 10.88-28.736 0-39.616z m100.672-660.608c-42.24-42.304-115.84-42.368-158.08 0-21.12 21.12-32.768 49.216-32.768 79.104 0 29.888 11.648 58.048 31.872 78.336l356.224 326.464 0.64 0.832a27.52 27.52 0 0 1 4.928 6.528l1.28 2.496 0.896 2.56a28.8 28.8 0 0 1 1.28 7.936l-0.128 2.624a26.304 26.304 0 0 1-0.384 2.88l-0.128 1.088a197.76 197.76 0 0 0-5.184 44.16c0 108.864 89.728 196.48 198.272 195.904l-9.28-9.28a137.024 137.024 0 0 1 0-193.28c25.792-25.792 60.032-40.064 96.512-40.064 36.48 0 70.72 14.272 96.448 40.064l9.28 9.28v-2.624A195.968 195.968 0 0 0 707.52 384c-14.464 0-29.248 1.728-44.032 5.12l-1.088 0.192a28.864 28.864 0 0 1-8.384 0.256 28.16 28.16 0 0 1-5.312-1.152l-2.176-0.704a26.88 26.88 0 0 1-2.752-1.408l-2.048-1.152a29.12 29.12 0 0 1-4.352-3.648l-0.832-0.64-325.12-355.904z m575.296-16.448a57.152 57.152 0 0 0-79.04 0l-217.088 217.472 79.04 79.168 217.088-217.472a55.68 55.68 0 0 0 16.384-39.616c0-14.912-5.76-28.992-16.384-39.552zM232.384 160.12800000000004a56 56 0 0 1 0-112 55.936 55.936 0 1 1 0 112z"  horiz-adv-x="1024" />

    
    <glyph glyph-name="21" unicode="&#58882;" d="M914.3 540.6c-19.5 0-37.6-6-52.6-16.1v3.8c0 11.4-9.3 20.7-20.7 20.7H182.6c-11.4 0-20.7-9.3-20.7-20.7v-3.6c-14.9 10-32.9 15.9-52.2 15.9-51.8 0-94-42.1-94-94 0-11.4 9.3-20.7 20.7-20.7s20.7 9.3 20.7 20.7c0 29 23.6 52.5 52.6 52.5 27.8 0 50.4-21.7 52.2-49v-289.7c0-11.4 9.3-20.7 20.7-20.7h658.5c11.4 0 20.7 9.3 20.7 20.7V446.7c0 29 23.6 52.5 52.6 52.5s52.5-23.6 52.5-52.5c0-11.4 9.3-20.7 20.7-20.7 11.4 0 20.7 9.3 20.7 20.7 0 51.8-42.1 93.9-94 93.9z m-93.9-359.4H203.3V444.9c0.1 0.6 0.4 1.1 0.4 1.7 0 1.2-0.3 2.3-0.4 3.5v57.5h617.1v-326.4zM731.3 85.20000000000005c-46.2 0-86.6-24.3-109.8-60.5-23.2 36.3-63.6 60.5-109.7 60.5s-86.5-24.3-109.7-60.5c-23.2 36.3-63.6 60.5-109.7 60.5-71.9 0-130.4-58.6-130.4-130.5 0-11.4 9.3-20.7 20.7-20.7 11.4 0 20.7 9.3 20.7 20.7 0 49.1 39.9 89.1 89 89.1s89-39.9 89-89.1c0-11.4 9.3-20.7 20.7-20.7 11.4 0 20.7 9.3 20.7 20.7 0 49.1 39.9 89.1 89 89.1s89-39.9 89-89.1c0-11.4 9.3-20.7 20.7-20.7 11.4 0 20.7 9.3 20.7 20.7 0 49.1 39.9 89.1 89.1 89.1 49.1 0 89-39.9 89-89.1 0-11.4 9.3-20.7 20.7-20.7 11.4 0 20.7 9.3 20.7 20.7 0.1 71.9-58.4 130.5-130.4 130.5zM153.1 583h717.5c7.7 0 14.7 4.2 18.3 11 3.6 6.8 3.2 14.9-1.1 21.3-2.9 4.3-71.8 102.8-255.6 135.1C625.3 797.3 574.3 834 511.8 834c-62.5 0-113.5-36.7-120.3-83.6-183.9-32.3-252.7-130.8-255.6-135.1-4.3-6.4-4.7-14.5-1.1-21.3 3.6-6.7 10.6-11 18.3-11z m358.7 209.6c34.6 0 64.9-15.2 75.9-35.8-24.7 2.6-50.1 3.9-75.9 3.9-25.8 0-51.2-1.3-75.9-3.9 11 20.6 41.3 35.8 75.9 35.8z m-97.4-80.1c62.3 9.1 132.7 9.1 194.9 0 110-16.2 177.2-58.2 212.6-88H201.8c35.4 29.8 102.6 71.8 212.6 88z"  horiz-adv-x="1024" />

    
    <glyph glyph-name="flow" unicode="&#58897;" d="M544 656v-64h288v64H544z m-64-48H368c-8.8 0-16 7.2-16 16s7.2 16 16 16h112v16c0 35.3 28.7 64 64 64h288c35.3 0 64-28.7 64-64v-64c0-35.3-28.7-64-64-64H544c-35.3 0-64 28.7-64 64v16z m0-528H224c-35.3 0-64 28.7-64 64V583.2l32-46V144c0-17.7 14.3-32 32-32h256v32c0 35.3 28.7 64 64 64h288c35.3 0 64-28.7 64-64v-64c0-35.3-28.7-64-64-64H544c-35.3 0-64 28.7-64 64z m0 272H336c-35.3 0-64 28.7-64 64V552.8l32-25.9V416c0-17.7 14.3-32 32-32h144v16c0 35.3 28.7 64 64 64h288c35.3 0 64-28.7 64-64v-64c0-35.3-28.7-64-64-64H544c-35.3 0-64 28.7-64 64v16z m64 48v-64h288v64H544z m0-256v-64h288v64H544zM160 656v-64h160v64H160z m0 64h160c35.3 0 64-28.7 64-64v-64c0-35.3-28.7-64-64-64H160c-35.3 0-64 28.7-64 64v64c0 35.3 28.7 64 64 64z"  horiz-adv-x="1024" />

    
    <glyph glyph-name="zuzhiqunzu" unicode="&#60376;" d="M960 192h-63.616v167.392a32 32 0 0 1-32 32H544V480h160a32 32 0 0 1 32 32V800a32 32 0 0 1-32 32H320a32 32 0 0 1-32-32v-288a32 32 0 0 1 32-32h160v-88.608H161.984a32 32 0 0 1-32-31.968L129.792 192H64a32 32 0 0 1-32-32v-192a32 32 0 0 1 32-32h192a32 32 0 0 1 32 32v192a32 32 0 0 1-32 32H193.792l0.16 135.392H480V192h-64a32 32 0 0 1-32-32v-192a32 32 0 0 1 32-32h192a32 32 0 0 1 32 32v192a32 32 0 0 1-32 32h-64v135.392h288.384V192H768a32 32 0 0 1-32-32v-192a32 32 0 0 1 32-32h192a32 32 0 0 1 32 32v192a32 32 0 0 1-32 32zM352 768h320v-224H352V768zM224 0H96v128h128v-128z m352 0h-128v128h128v-128z m352 0h-128v128h128v-128z"  horiz-adv-x="1024" />

    
    <glyph glyph-name="sync" unicode="&#59270;" d="M168 391.8c1 43.7 10 86.1 26.9 126 17.3 41 42.1 77.7 73.7 109.4S337 683.7 378 701c42.4 17.9 87.4 27 133.9 27s91.5-9.1 133.8-27c40.9-17.3 77.7-42.1 109.3-73.8 9.9-9.9 19.2-20.4 27.8-31.4l-60.2-47c-5.3-4.1-3.5-12.5 3-14.1l175.7-43c5-1.2 9.9 2.6 9.9 7.7l0.8 180.9c0 6.7-7.7 10.5-12.9 6.3l-56.4-44.1C765.8 740.9 646.2 804 511.8 804 282.7 804 96.3 620.4 92 392.2c-0.1-4.5 3.5-8.2 8-8.2h60c4.4 0 7.9 3.5 8 7.8zM924 384h-60c-4.4 0-7.9-3.5-8-7.8-1-43.7-10-86.1-26.9-126-17.3-41-42.1-77.8-73.7-109.4S687 84.3 646 67c-42.4-17.9-87.4-27-133.9-27s-91.5 9.1-133.9 27c-40.9 17.3-77.7 42.1-109.3 73.8-9.9 9.9-19.2 20.4-27.8 31.4l60.2 47c5.3 4.1 3.5 12.5-3 14.1l-175.7 43c-5 1.2-9.9-2.6-9.9-7.7l-0.7-181c0-6.7 7.7-10.5 12.9-6.3l56.4 44.1C258.2 27.1 377.8-36 512.2-36c229.2 0 415.5 183.7 419.8 411.8 0.1 4.5-3.5 8.2-8 8.2z"  horiz-adv-x="1024" />

    
    <glyph glyph-name="adduser" unicode="&#59310;" d="M678.3 253.6c24.2 13 51.9 20.4 81.4 20.4h0.1c3 0 4.4 3.6 2.2 5.6-30.8 27.6-65.6 49.7-103.7 65.8-0.4 0.2-0.8 0.3-1.2 0.5C719.2 391 759.6 464.3 759.6 547c0 137-110.8 248-247.5 248S264.7 684 264.7 547c0-82.7 40.4-156 102.6-201.1-0.4-0.2-0.8-0.3-1.2-0.5-44.7-18.9-84.8-46-119.3-80.6-34.5-34.5-61.5-74.7-80.4-119.5C147.9 101.5 138 55 137 7.2c-0.1-4.5 3.5-8.2 8-8.2h59.9c4.3 0 7.9 3.5 8 7.8 2 77.2 32.9 149.5 87.6 204.3C357 267.8 432.2 299 512.2 299c56.7 0 111.1-15.7 158-45.1 2.5-1.5 5.5-1.7 8.1-0.3zM512.2 375c-45.8 0-88.9 17.9-121.4 50.4-32.4 32.5-50.3 75.7-50.3 121.6 0 45.9 17.9 89.1 50.3 121.6S466.3 719 512.2 719s88.9-17.9 121.4-50.4c32.4-32.5 50.3-75.7 50.3-121.6 0-45.9-17.9-89.1-50.3-121.6C601.1 392.9 558 375 512.2 375zM880 137h-84v84c0 4.4-3.6 8-8 8h-56c-4.4 0-8-3.6-8-8v-84h-84c-4.4 0-8-3.6-8-8v-56c0-4.4 3.6-8 8-8h84v-84c0-4.4 3.6-8 8-8h56c4.4 0 8 3.6 8 8v84h84c4.4 0 8 3.6 8 8v56c0 4.4-3.6 8-8 8z"  horiz-adv-x="1024" />

    
    <glyph glyph-name="deleteteam" unicode="&#59311;" d="M888 112H664c-4.4 0-8-3.6-8-8v-48c0-4.4 3.6-8 8-8h224c4.4 0 8 3.6 8 8v48c0 4.4-3.6 8-8 8zM373.5 385.6c-0.9 8.7-1.4 17.5-1.4 26.4 0 15.9 1.5 31.4 4.3 46.5 0.7 3.6-1.2 7.3-4.5 8.8-13.6 6.1-26.1 14.5-36.9 25.1-25.8 25.2-39.7 59.3-38.7 95.4 0.9 32.1 13.8 62.6 36.3 85.6 24.7 25.3 57.9 39.1 93.2 38.7 31.9-0.3 62.7-12.6 86-34.4 7.9-7.4 14.7-15.6 20.4-24.4 2-3.1 5.9-4.4 9.3-3.2 17.6 6.1 36.2 10.4 55.3 12.4 5.6 0.6 8.8 6.6 6.3 11.6-32.5 64.3-98.9 108.7-175.7 109.9-110.9 1.7-203.3-89.2-203.3-199.9 0-62.8 28.9-118.8 74.2-155.5-31.8-14.7-61.1-35-86.5-60.4-54.8-54.7-85.8-126.9-87.8-204-0.1-4.5 3.5-8.2 8-8.2h56.1c4.3 0 7.9 3.4 8 7.7 1.9 58 25.4 112.3 66.7 153.5 29.4 29.4 65.4 49.8 104.7 59.7 3.9 1 6.5 4.7 6 8.7zM824 412c0 109.4-87.9 198.3-196.9 200C516.3 613.7 424 522.8 424 412c0-62.8 29-118.8 74.2-155.5-31.7-14.7-60.9-34.9-86.4-60.4C357 141.4 326 69.2 324-7.8c-0.1-4.5 3.5-8.2 8-8.2h56c4.3 0 7.9 3.4 8 7.7 1.9 58 25.4 112.3 66.7 153.5C505.8 188.3 563 212 624 212c110.4 0 200 89.5 200 200z m-109.5-90.5C690.3 297.3 658.2 284 624 284s-66.3 13.3-90.5 37.5C509 346 495.7 378.6 496 413.3c0.3 32.8 13.4 64.5 36.3 88 24 24.6 56.1 38.3 90.4 38.7 33.9 0.3 66.8-12.9 91-36.6 24.8-24.3 38.4-56.8 38.4-91.4-0.1-34.2-13.4-66.3-37.6-90.5z"  horiz-adv-x="1024" />

    
    <glyph glyph-name="deleteuser" unicode="&#59312;" d="M678.3 240.6c24.2 13 51.9 20.4 81.4 20.4h0.1c3 0 4.4 3.6 2.2 5.6-30.8 27.6-65.6 49.7-103.7 65.8-0.4 0.2-0.8 0.3-1.2 0.5C719.2 378 759.6 451.3 759.6 534c0 137-110.8 248-247.5 248S264.7 671 264.7 534c0-82.7 40.4-156 102.6-201.1-0.4-0.2-0.8-0.3-1.2-0.5-44.7-18.9-84.8-46-119.3-80.6-34.5-34.5-61.5-74.7-80.4-119.5C147.9 88.5 138 42 137-5.8c-0.1-4.5 3.5-8.2 8-8.2h59.9c4.3 0 7.9 3.5 8 7.8 2 77.2 32.9 149.5 87.6 204.3C357 254.8 432.2 286 512.2 286c56.7 0 111.1-15.7 158-45.1 2.5-1.5 5.5-1.7 8.1-0.3zM512.2 362c-45.8 0-88.9 17.9-121.4 50.4-32.4 32.5-50.3 75.7-50.3 121.6 0 45.9 17.9 89.1 50.3 121.6S466.3 706 512.2 706s88.9-17.9 121.4-50.4c32.4-32.5 50.3-75.7 50.3-121.6 0-45.9-17.9-89.1-50.3-121.6C601.1 379.9 558 362 512.2 362zM880 124H640c-4.4 0-8-3.6-8-8v-56c0-4.4 3.6-8 8-8h240c4.4 0 8 3.6 8 8v56c0 4.4-3.6 8-8 8z"  horiz-adv-x="1024" />

    
    <glyph glyph-name="addteam" unicode="&#59313;" d="M892 124h-80v80c0 4.4-3.6 8-8 8h-48c-4.4 0-8-3.6-8-8v-80h-80c-4.4 0-8-3.6-8-8v-48c0-4.4 3.6-8 8-8h80v-80c0-4.4 3.6-8 8-8h48c4.4 0 8 3.6 8 8v80h80c4.4 0 8 3.6 8 8v48c0 4.4-3.6 8-8 8zM373.5 397.6c-0.9 8.7-1.4 17.5-1.4 26.4 0 15.9 1.5 31.4 4.3 46.5 0.7 3.6-1.2 7.3-4.5 8.8-13.6 6.1-26.1 14.5-36.9 25.1-25.8 25.2-39.7 59.3-38.7 95.4 0.9 32.1 13.8 62.6 36.3 85.6 24.7 25.3 57.9 39.1 93.2 38.7 31.9-0.3 62.7-12.6 86-34.4 7.9-7.4 14.7-15.6 20.4-24.4 2-3.1 5.9-4.4 9.3-3.2 17.6 6.1 36.2 10.4 55.3 12.4 5.6 0.6 8.8 6.6 6.3 11.6-32.5 64.3-98.9 108.7-175.7 109.9-110.8 1.7-203.2-89.2-203.2-200 0-62.8 28.9-118.8 74.2-155.5-31.8-14.7-61.1-35-86.5-60.4-54.8-54.7-85.8-126.9-87.8-204-0.1-4.5 3.5-8.2 8-8.2h56.1c4.3 0 7.9 3.4 8 7.7 1.9 58 25.4 112.3 66.7 153.5 29.4 29.4 65.4 49.8 104.7 59.7 3.8 1.1 6.4 4.8 5.9 8.8zM824 424c0 109.4-87.9 198.3-196.9 200C516.3 625.7 424 534.8 424 424c0-62.8 29-118.8 74.2-155.5-31.7-14.7-60.9-34.9-86.4-60.4C357 153.4 326 81.2 324 4.2c-0.1-4.5 3.5-8.2 8-8.2h56c4.3 0 7.9 3.4 8 7.7 1.9 58 25.4 112.3 66.7 153.5C505.8 200.3 563 224 624 224c110.4 0 200 89.5 200 200z m-109.5-90.5C690.3 309.3 658.2 296 624 296s-66.3 13.3-90.5 37.5C509 358 495.7 390.6 496 425.3c0.3 32.8 13.4 64.5 36.3 88 24 24.6 56.1 38.3 90.4 38.7 33.9 0.3 66.8-12.9 91-36.6 24.8-24.3 38.4-56.8 38.4-91.4-0.1-34.2-13.4-66.3-37.6-90.5z"  horiz-adv-x="1024" />

    
    <glyph glyph-name="user" unicode="&#59314;" d="M858.5 132.4c-18.9 44.8-46.1 85-80.6 119.5-34.5 34.5-74.7 61.6-119.5 80.6-0.4 0.2-0.8 0.3-1.2 0.5C719.5 378 760 451.3 760 534c0 137-111 248-248 248S264 671 264 534c0-82.7 40.5-156 102.8-201.1-0.4-0.2-0.8-0.3-1.2-0.5-44.8-18.9-85-46-119.5-80.6-34.5-34.5-61.6-74.7-80.6-119.5C146.9 88.5 137 42 136-5.8c-0.1-4.5 3.5-8.2 8-8.2h60c4.4 0 7.9 3.5 8 7.8 2 77.2 33 149.5 87.8 204.3 56.7 56.7 132 87.9 212.2 87.9s155.5-31.2 212.2-87.9C779 143.3 810 71 812-6.2c0.1-4.4 3.6-7.8 8-7.8h60c4.5 0 8.1 3.7 8 8.2-1 47.8-10.9 94.3-29.5 138.2zM512 362c-45.9 0-89.1 17.9-121.6 50.4S340 488.1 340 534c0 45.9 17.9 89.1 50.4 121.6S466.1 706 512 706s89.1-17.9 121.6-50.4S684 579.9 684 534c0-45.9-17.9-89.1-50.4-121.6S557.9 362 512 362z"  horiz-adv-x="1024" />

    
    <glyph glyph-name="team" unicode="&#59315;" d="M824.2 196.1c-25.4 25.4-54.7 45.7-86.4 60.4C783.1 293.2 812 349.2 812 412c0 110.8-92.4 201.7-203.2 200-109.1-1.7-197-90.6-197-200 0-62.8 29-118.8 74.2-155.5-31.7-14.7-60.9-34.9-86.4-60.4C345 141.4 314 69.2 312-7.8c-0.1-4.5 3.5-8.2 8-8.2h56c4.3 0 7.9 3.4 8 7.7 1.9 58 25.4 112.3 66.7 153.5C493.8 188.3 551.1 212 612 212c60.9 0 118.2-23.7 161.3-66.8C814.5 104 838 49.7 840-8.3c0.1-4.3 3.7-7.7 8-7.7h56c4.5 0 8.1 3.7 8 8.2-2 77-33 149.2-87.8 203.9zM612 284c-34.2 0-66.4 13.3-90.5 37.5-24.5 24.5-37.9 57.1-37.5 91.8 0.3 32.8 13.4 64.5 36.3 88 24 24.6 56.1 38.3 90.4 38.7 33.9 0.3 66.8-12.9 91-36.6 24.8-24.3 38.4-56.8 38.4-91.4 0-34.2-13.3-66.3-37.5-90.5-24.2-24.2-56.4-37.5-90.6-37.5zM361.5 385.6c-0.9 8.7-1.4 17.5-1.4 26.4 0 15.9 1.5 31.4 4.3 46.5 0.7 3.6-1.2 7.3-4.5 8.8-13.6 6.1-26.1 14.5-36.9 25.1-25.8 25.2-39.7 59.3-38.7 95.4 0.9 32.1 13.8 62.6 36.3 85.6 24.7 25.3 57.9 39.1 93.2 38.7 31.9-0.3 62.7-12.6 86-34.4 7.9-7.4 14.7-15.6 20.4-24.4 2-3.1 5.9-4.4 9.3-3.2 17.6 6.1 36.2 10.4 55.3 12.4 5.6 0.6 8.8 6.6 6.3 11.6-32.5 64.3-98.9 108.7-175.7 109.9-110.9 1.7-203.3-89.2-203.3-199.9 0-62.8 28.9-118.8 74.2-155.5-31.8-14.7-61.1-35-86.5-60.4-54.8-54.7-85.8-126.9-87.8-204-0.1-4.5 3.5-8.2 8-8.2h56.1c4.3 0 7.9 3.4 8 7.7 1.9 58 25.4 112.3 66.7 153.5 29.4 29.4 65.4 49.8 104.7 59.7 3.9 1 6.5 4.7 6 8.7z"  horiz-adv-x="1024" />

    
    <glyph glyph-name="areachart" unicode="&#59316;" d="M888 104H200V728c0 4.4-3.6 8-8 8h-56c-4.4 0-8-3.6-8-8v-688c0-4.4 3.6-8 8-8h752c4.4 0 8 3.6 8 8v56c0 4.4-3.6 8-8 8zM272 168h536c4.4 0 8 3.6 8 8V612c0 7.2-8.7 10.7-13.7 5.7L592 407.4l-125.4 124c-3.1 3.1-8.2 3.1-11.3 0l-189-189.6c-1.5-1.5-2.3-3.5-2.3-5.6V176c0-4.4 3.6-8 8-8z"  horiz-adv-x="1024" />

    
    <glyph glyph-name="linechart" unicode="&#59317;" d="M888 104H200V728c0 4.4-3.6 8-8 8h-56c-4.4 0-8-3.6-8-8v-688c0-4.4 3.6-8 8-8h752c4.4 0 8 3.6 8 8v56c0 4.4-3.6 8-8 8zM305.8 258.3c3.1-3.1 8.1-3.1 11.3 0l138.3 137.6L583 267.5c3.1-3.1 8.2-3.1 11.3 0l275.4 275.3c3.1 3.1 3.1 8.2 0 11.3l-39.6 39.6c-3.1 3.1-8.2 3.1-11.3 0l-230-229.9L461.4 492c-3.1 3.1-8.2 3.1-11.3 0L266.3 309.3c-3.1-3.1-3.1-8.2 0-11.3l39.5-39.7z"  horiz-adv-x="1024" />

    
    <glyph glyph-name="barchart" unicode="&#59318;" d="M888 104H200V728c0 4.4-3.6 8-8 8h-56c-4.4 0-8-3.6-8-8v-688c0-4.4 3.6-8 8-8h752c4.4 0 8 3.6 8 8v56c0 4.4-3.6 8-8 8zM288 184h56c4.4 0 8 3.6 8 8V336c0 4.4-3.6 8-8 8h-56c-4.4 0-8-3.6-8-8v-144c0-4.4 3.6-8 8-8zM440 184h56c4.4 0 8 3.6 8 8V512c0 4.4-3.6 8-8 8h-56c-4.4 0-8-3.6-8-8v-320c0-4.4 3.6-8 8-8zM592 184h56c4.4 0 8 3.6 8 8V434c0 4.4-3.6 8-8 8h-56c-4.4 0-8-3.6-8-8v-242c0-4.4 3.6-8 8-8zM744 184h56c4.4 0 8 3.6 8 8V592c0 4.4-3.6 8-8 8h-56c-4.4 0-8-3.6-8-8v-400c0-4.4 3.6-8 8-8z"  horiz-adv-x="1024" />

    
    <glyph glyph-name="pointmap" unicode="&#59319;" d="M888 104H200V728c0 4.4-3.6 8-8 8h-56c-4.4 0-8-3.6-8-8v-688c0-4.4 3.6-8 8-8h752c4.4 0 8 3.6 8 8v56c0 4.4-3.6 8-8 8zM352 292m-64 0a64 64 0 1 1 128 0 64 64 0 1 1-128 0ZM454 516m-48 0a48 48 0 1 1 96 0 48 48 0 1 1-96 0ZM660 288m-96 0a96 96 0 1 1 192 0 96 96 0 1 1-192 0ZM768 602m-56 0a56 56 0 1 1 112 0 56 56 0 1 1-112 0Z"  horiz-adv-x="1024" />

    
    <glyph glyph-name="38" unicode="&#58895;" d="M778.752-128H245.248c-46.592 0-84.992 37.888-84.992 84.992V811.008C160.256 858.112 198.144 896 245.248 896h534.016c46.592 0 84.992-37.888 84.992-84.992v-854.016c-0.512-47.104-38.4-84.992-85.504-84.992zM245.248 833.024c-12.288 0-22.016-9.728-22.016-22.016v-854.016c0-12.288 9.728-22.016 22.016-22.016h534.016c12.288 0 22.016 9.728 22.016 22.016V811.008c0 12.288-9.728 22.016-22.016 22.016H245.248zM832.512 122.36800000000005H191.488c-17.408 0-31.744 14.336-31.744 31.744 0 17.408 14.336 31.744 31.744 31.744h640.512c17.408 0 31.744-14.336 31.744-31.744 0-17.408-13.824-31.744-31.232-31.744zM512 31.23199999999997m-53.248 0a53.248 53.248 0 1 1 106.496 0 53.248 53.248 0 1 1-106.496 0Z"  horiz-adv-x="1024" />

    
    <glyph glyph-name="05" unicode="&#58902;" d="M938.496-128H85.504C38.4-128 0-89.60000000000002 0-42.49599999999998v640c0 47.104 38.4 85.504 85.504 85.504h853.504c47.104 0 85.504-38.4 85.504-85.504v-640c-0.512-47.104-38.912-85.504-86.016-85.504zM85.504 618.496c-11.776 0-21.504-9.728-21.504-21.504v-640c0-11.776 9.728-21.504 21.504-21.504h853.504c11.776 0 21.504 9.728 21.504 21.504v640c0 11.776-9.728 21.504-21.504 21.504H85.504zM581.12 42.49599999999998h-138.24c-11.776 0-21.504 9.728-21.504 21.504v122.88h-122.88c-11.776 0-21.504 9.728-21.504 21.504v138.752c0 11.776 9.728 21.504 21.504 21.504h122.88V491.52c0 11.776 9.728 21.504 21.504 21.504h138.752c11.776 0 21.504-9.728 21.504-21.504v-122.88h122.88c11.776 0 21.504-9.728 21.504-21.504v-138.752c0-11.776-9.728-21.504-21.504-21.504h-122.88v-122.88c-0.512-11.776-10.24-21.504-22.016-21.504z m-117.248 43.008h96.256v122.88c0 11.776 9.728 21.504 21.504 21.504h122.88v96.256h-122.88c-11.776 0-21.504 9.728-21.504 21.504v122.88H463.872v-122.88c0-11.776-9.728-21.504-21.504-21.504h-122.88v-96.256h122.88c11.776 0 21.504-9.728 21.504-21.504v-122.88zM746.496 618.496c-17.92 0-32.256 14.336-32.256 32.256V804.864c0 14.848-9.728 27.136-21.504 27.136H330.752c-11.776 0-21.504-12.288-21.504-27.136v-154.112c0-17.92-14.336-32.256-32.256-32.256s-32.256 14.336-32.256 32.256V804.864C245.248 855.04 283.648 896 330.752 896h362.496c47.104 0 85.504-40.96 85.504-91.136v-154.112c0-17.92-14.336-32.256-32.256-32.256z"  horiz-adv-x="1024" />

    
    <glyph glyph-name="07" unicode="&#58959;" d="M952.2 436.585H835.277v366.137A41.3985 41.3985 0 0 1 793.999 844H470.174a41.3985 41.3985 0 0 1-41.2781-41.2781l-41.2781-366.137h-98.7862a41.3885 41.3885 0 0 1-41.2781-41.2781l-33.193-282.437-45.8122 3.5109 37.4663 292.709a33.1027 33.1027 0 0 1-30.5247 35.3598c-0.722242 0.0501553-1.43445 0.0702178-2.14666 0.0802491h-3.13974l-0.872709-0.100312-0.722242-0.0902803-0.882741-0.140436-0.702179-0.120374-0.872709-0.180561-0.682118-0.150467-0.88274-0.220685-0.652025-0.180561-0.902802-0.280872-0.601868-0.190592-1.00312-0.351089-0.511588-0.180561-1.11346-0.481495-0.320997-0.130404c-0.481494-0.220685-0.952959-0.451402-1.40436-0.682118h-0.0902803l-1.29402-0.70218-0.381183-0.240747-1.00312-0.581806-0.461433-0.300934-0.832584-0.561744-0.481494-0.351089-0.762367-0.561744-0.491526-0.401245-0.712211-0.581806-0.491526-0.421308-0.672086-0.6119-0.471463-0.451401-0.641993-0.631962-0.451401-0.481494-0.601868-0.672086-0.44137-0.511588-0.471463-0.762367-0.431339-0.541682-0.521619-0.702179-0.411277-0.551713-0.491526-0.732273-0.371152-0.581806-0.451401-0.742304-0.35109-0.601868-0.421308-0.772398-0.320996-0.621931c-0.140436-0.250778-0.26081-0.521619-0.381184-0.792459l-0.290902-0.631962c-0.130404-0.26081-0.240747-0.541682-0.35109-0.812522l-0.26081-0.641993c-0.110343-0.280872-0.200623-0.561743-0.300935-0.842616s-0.160498-0.44137-0.230716-0.652025-0.190592-0.581806-0.280872-0.88274-0.130404-0.431339-0.200622-0.641993-0.150467-0.6119-0.230716-0.922865-0.110343-0.421308-0.160499-0.641993-0.140436-0.641993-0.200622-1.00312-0.0902803-0.401245-0.130405-0.6119c-0.0601866-0.371152-0.110343-0.742304-0.160498-1.11346a4.80491 4.80491 0 0 0-0.0702178-0.511588c-0.0702178-0.541682-0.130404-1.0934-0.170529-1.64511L92.092 38.74000000000001a32.6714 32.6714 0 0 1 3.53096-17.394 33.1027 33.1027 0 0 1 26.9938-17.9557c0.712211 0 1.43445-0.0702178 2.16672-0.0802491h2.37738l0.752335 0.0501563 0.872709 0.0902803 0.732273 0.0902794 0.862678 0.130405 0.71221 0.130404 0.862678 0.180561 0.682118 0.160498 0.892772 0.230717 0.631961 0.170529 0.922865 0.290902 0.591837 0.180561 1.00312 0.361121 0.491526 0.190591c0.391214 0.150467 0.782429 0.320996 1.16362 0.491527l0.270841 0.110342c0.481494 0.220685 1.00312 0.451402 1.42442 0.692149s0.912833 0.481494 1.3542 0.742304l0.361121 0.210654 1.00312 0.581806 0.451402 0.310965 0.842616 0.571775 0.471463 0.341059 0.79246 0.581806 0.471463 0.381184 0.722242 0.591837 0.471463 0.421308 0.682118 0.62193 0.461432 0.451402 0.641993 0.641993 0.451401 0.471464 0.6119 0.672086 0.431339 0.501557 0.571775 0.692149 0.411277 0.521618 0.541682 0.712211 0.391214 0.561743 0.491526 0.732274 0.371152 0.561743 0.461432 0.752335 0.35109 0.591837 0.421308 0.772398 0.310966 0.6119c0.140436 0.270841 0.26081 0.531651 0.391214 0.792459l0.280872 0.631962c0.130404 0.270841 0.240747 0.541682 0.351089 0.812522l0.26081 0.641993c0.100312 0.280872 0.200623 0.571775 0.310966 0.842616s0.150467 0.44137 0.220685 0.652025 0.190592 0.591837 0.270841 0.88274 0.130404 0.431339 0.200622 0.652024 0.150467 0.601868 0.230717 0.912834 0.120374 0.431339 0.170529 0.652024 0.130404 0.652024 0.190591 1.00312 0.0902803 0.411277 0.130405 0.631961 0.110343 0.722242 0.160498 1.0934a3.24006 3.24006 0 0 0 0.0802491 0.531651c0.0702178 0.541682 0.130404 1.0934 0.170529 1.65514l2.06641 15.8392 46.4342-3.54099-0.200623-1.75545a41.3985 41.3985 0 0 1 41.2781-41.2781h84.0007a120.374 120.374 0 0 1 196.942 0h116.161a119.511 119.511 0 0 1 93.6608-49.0121h3.24006a119.531 119.531 0 0 1 96.63 49.1024h113.993a41.3985 41.3985 0 0 1 41.2781 41.2781V395.307a41.3885 41.3885 0 0 1-41.2781 41.2781ZM479.212 49.53399999999999l-5.87825-8.25562a41.5389 41.5389 0 1 0 5.84815 8.25562Zm308.197-3.5109l-2.81875-3.84192a53.2453 53.2453 0 0 0-43.2242-22.0685h-2.65825a53.6566 53.6566 0 1 0 48.7012 25.9104Zm140.034 23.1719h-66.3259c0.0601866 1.52473 0.0902803 3.09962 0.0902803 4.61433a119.711 119.711 0 1 1-239.413 0c0-1.54479 0-3.09962 0.0902803-4.61433h-71.8329v2.54791a119.711 119.711 0 1 1-239.413 0v-2.54791h-34.9184l35.4501 301.335h135.45l6.65064 58.6822 39.312 348.753h276.668v-407.415h158.191Zm0 0M712.798 733.788H563.725a20.6842 20.6842 0 0 1-20.6341-20.6341l-41.2781-303.853a20.6943 20.6943 0 0 1 20.6742-20.6341h179.989a20.7043 20.7043 0 0 1 20.6341 20.6341l10.312 303.853a20.6842 20.6842 0 0 1-20.6341 20.6341Zm-54.2183-279.076h-83.9305l28.8897 213.031h62.1931Zm0 0"  horiz-adv-x="1107" />

    
    <glyph glyph-name="01" unicode="&#58960;" d="M950.997 83.46400000000006l0.904992 1.3072-270.201 468.825V770.182h18.9244c20.7243 0 37.3258 14.6005 37.3258 29.8948S721.245 833.993 700.622 833.993H325.061c-20.7344 0.402218-37.3359-18.2205-37.3359-33.9171 0-15.2944 16.7021-29.8948 37.3359-29.8948h18.9143v-217.057L78.3 91.11699999999996l0.402218-0.904992C69.25 74.41399999999999 62 55.99300000000005 62 35.740999999999985c0.402218-56.2503 41.4586-101.741 92.279-101.741H880.514c45.883 5.44 82.4548 49.1108 82.4548 101.741 0.100554 17.6373-4.83668 33.3338-11.9761 47.7233ZM402.649 525.241a55.6167 55.6167 0 0 1 7.64214 27.8838V770.182h204.991v-216.654a55.466 55.466 0 0 1 7.6522-27.8738l49.1108-78.1008s-77.1857-33.9069-159.409 0-158.193 0-158.193 0Zm462.913-527.912H163.56c-19.3267 0-35.5259 20.7344-35.5259 45.4909 0 7.64215 2.71498 16.1993 8.5572 25.6615a102.173 102.173 0 0 1 4.52496 9.45206l173.96 295.973s103.571 35.898 153.164 10.4576c91.2735-46.8986 234.876 0 234.876 0L885.985 73.49900000000002a68.3771 68.3771 0 0 1 3.11719-8.15497c4.02218-8.54713 6.34499-15.7972 6.34499-22.5343 0.301663-24.7565-14.9927-41.8609-29.8849-45.4909ZM348.078 256.961a95.0241 95.0241 0 1 1 95.0241-95.0241 95.1253 95.1253 0 0 1-95.0241 95.0241Zm0-125.693a30.6692 30.6692 0 1 0 30.6692 30.6692 30.6993 30.6993 0 0 0-30.6692-30.6692ZM572.817 281.09400000000005m-38.2107 0a38.2107 38.2107 0 1 1 76.4215 0 38.2107 38.2107 0 1 1-76.4215 0ZM679.908 219.75699999999995a82.9575 82.9575 0 1 1 82.9575-82.9575 83.0481 83.0481 0 0 1-82.9575 82.9575Zm0-101.56a18.6026 18.6026 0 1 0 18.6026 18.6026 18.6227 18.6227 0 0 0-18.6026-18.6026Z"  horiz-adv-x="1025" />

    
    <glyph glyph-name="32" unicode="&#58888;" d="M844.05928 432.056457h-104.062103v34.687368c6.503881 3.613267 12.285109 7.949188 18.066337 13.007763 50.585745 44.081863 42.636556 86.718419 37.577982 102.616796-7.226535 20.956951-23.847565 37.577982-44.081863 46.972477 6.503881 28.90614 9.394495 75.155963-23.124912 109.843331-25.292872 26.738179-63.593507 40.468596-103.339449 36.855328-11.562456-1.445307-21.679605-3.613267-30.351447-7.226535-16.62103 18.066337-44.804517 42.636556-84.550459 49.140438-41.191249 6.503881-83.827805-6.503881-127.187015-39.745942-18.066337 6.503881-49.863091 13.730416-80.937191 0.722653-28.183486-11.562456-48.417784-36.132675-61.425547-72.265349-41.191249-16.62103-99.003529-62.1482-83.105151-141.640085 8.671842-43.35921 32.519407-78.769231 65.038814-99.003529v-492.127028c0-13.730416 11.562456-25.292872 25.292872-25.292873H715.426958c13.730416 0 25.292872 11.562456 25.292873 25.292873v88.886379h104.062103c13.730416 0 25.292872 11.562456 25.292872 25.292872V406.763585c-0.722653 13.730416-11.562456 25.292872-26.015526 25.292872zM268.104446 662.582922c7.949188 2.16796 14.45307 8.671842 17.343684 17.343684 7.949188 28.183486 20.234298 45.52717 36.132675 52.031051 23.847565 10.117149 52.753705-5.058574 53.476358-5.058574 9.394495-5.058574 20.234298-3.613267 28.183486 2.890614 35.410021 30.351447 68.652082 43.35921 98.280875 38.300635 41.913903-6.503881 66.484121-46.249824 66.484122-46.249824 4.335921-7.226535 12.285109-12.285109 20.956951-12.285109s15.898377 4.335921 20.956951 10.839802c7.949188 6.503881 54.199012 13.730416 82.382499-15.175723 27.460833-29.628793 5.058574-83.105152 5.058574-83.105152-3.613267-7.226535-2.890614-16.62103 1.445307-23.124912 4.335921-7.226535 11.562456-11.562456 20.234298-11.562456 13.007763-0.722653 26.015526-9.394495 29.628793-20.956951 5.058574-13.730416-2.890614-31.0741-23.124912-48.417784-12.285109-10.117149-23.847565-15.175723-35.410021-13.730416-22.402258 2.16796-42.636556 24.570219-48.417784 33.24206-7.949188 10.839802-23.124912 13.730416-34.687368 6.503882-26.738179-18.066337-46.972477-4.335921-49.863091-1.445307-6.503881 5.058574-14.45307 7.226535-22.402258 5.058574-7.949188-2.16796-14.45307-7.226535-17.343684-15.175723 0-0.722653-18.066337-43.35921-59.98024-43.35921-44.804517 0-75.155963 43.35921-75.155963 43.35921-4.335921 6.503881-11.562456 10.839802-19.511644 10.839802H361.326747c-7.226535 0-14.45307-3.613267-19.511645-9.394495-23.124912-28.183486-49.863091-39.745942-75.878616-33.242061-29.628793 7.226535-52.753705 36.132675-59.98024 73.710656-11.562456 63.593507 54.921665 85.995766 62.1482 88.163727z m422.02964-664.118561H273.16302V449.400141c31.0741-2.16796 62.1482 8.671842 88.163727 31.796754 19.511644-18.788991 52.753705-42.636556 96.835568-42.636556 47.695131 0 77.323924 29.628793 92.499647 51.308398 17.343684-5.781228 39.745942-7.949188 64.316161 2.16796 14.45307-14.45307 38.300635-33.242061 69.374735-36.855328h5.781228v-456.717008z m129.354975 113.456599h-78.76923V381.47071300000005h78.76923v-269.549753zM355.545519 362.68172200000004c-13.730416 0-25.292872-11.562456-25.292873-25.292872v-254.37403c0-13.730416 11.562456-25.292872 25.292873-25.292872s25.292872 11.562456 25.292872 25.292872V338.11150299999997c0 13.730416-11.562456 24.570219-25.292872 24.570219z m120.683133 0c-13.730416 0-25.292872-11.562456-25.292872-25.292872v-254.37403c0-13.730416 11.562456-25.292872 25.292872-25.292872s25.292872 11.562456 25.292872 25.292872V338.11150299999997c0 13.730416-11.562456 24.570219-25.292872 24.570219z m120.683133 0c-13.730416 0-25.292872-11.562456-25.292872-25.292872v-254.37403c0-13.730416 11.562456-25.292872 25.292872-25.292872s25.292872 11.562456 25.292873 25.292872V338.11150299999997c-0.722653 13.730416-11.562456 24.570219-25.292873 24.570219z"  horiz-adv-x="1024" />

    
    <glyph glyph-name="26" unicode="&#58885;" d="M512 21.33333300000004c200.298667 0 362.666667 162.368 362.666667 362.666667S712.298667 746.666667 512 746.666667 149.333333 584.298667 149.333333 384s162.368-362.666667 362.666667-362.666667z m0-42.666666C288.149333-21.33333300000004 106.666667 160.14933299999996 106.666667 384S288.149333 789.333333 512 789.333333s405.333333-181.482667 405.333333-405.333333-181.482667-405.333333-405.333333-405.333333zM512 128c141.376 0 256 114.624 256 256s-114.624 256-256 256-256-114.624-256-256 114.624-256 256-256z m0-42.666667c-164.949333 0-298.666667 133.717333-298.666667 298.666667s133.717333 298.666667 298.666667 298.666667 298.666667-133.717333 298.666667-298.666667-133.717333-298.666667-298.666667-298.666667zM416 458.666667a21.333333 21.333333 0 1 1 0 42.666666 21.333333 21.333333 0 0 1 0-42.666666z m0-42.666667a64 64 0 1 0 0 128 64 64 0 0 0 0-128zM608 458.666667a21.333333 21.333333 0 1 1 0 42.666666 21.333333 21.333333 0 0 1 0-42.666666z m0-42.666667a64 64 0 1 0 0 128 64 64 0 0 0 0-128zM416 266.66666699999996a21.333333 21.333333 0 1 1 0 42.666666 21.333333 21.333333 0 0 1 0-42.666666z m0-42.666667a64 64 0 1 0 0 128 64 64 0 0 0 0-128zM608 266.66666699999996a21.333333 21.333333 0 1 1 0 42.666666 21.333333 21.333333 0 0 1 0-42.666666z m0-42.666667a64 64 0 1 0 0 128 64 64 0 0 0 0-128zM441.642667 422.506667l30.336 30.016 117.397333-118.613334-30.336-29.994666zM553.322667 453.482667l30.144-30.165334-116.352-116.309333-30.165334 30.165333z"  horiz-adv-x="1024" />

    
    <glyph glyph-name="34" unicode="&#59147;" d="M823.466667 657.066667c-4.266667 2.133333-8.533333 4.266667-12.8 4.266666V768c0 12.8-8.533333 21.333333-21.333334 21.333333h-128c0 12.8-8.533333 21.333333-21.333333 21.333334h-64V832c0 12.8-8.533333 21.333333-21.333333 21.333333h-85.333334c-12.8 0-21.333333-8.533333-21.333333-21.333333v-42.666667H234.666667c-12.8 0-21.333333-8.533333-21.333334-21.333333v-106.666667c-4.266667 0-8.533333 0-12.8-4.266666-6.4-4.266667-8.533333-10.666667-8.533333-17.066667v-682.666667c0-12.8 8.533333-21.333333 21.333333-21.333333h597.333334c12.8 0 21.333333 8.533333 21.333333 21.333333V640c0 6.4-2.133333 12.8-8.533333 17.066667z m-544-55.466667l19.2-113.066667c2.133333-10.666667 10.666667-17.066667 21.333333-17.066666h388.266667c10.666667 0 19.2 8.533333 21.333333 17.066666l19.2 115.2 42.666667 10.666667V405.333333H234.666667v206.933334l44.8-10.666667zM490.666667 618.666667h42.666666v-106.666667h-42.666666v106.666667z m128-106.666667h-42.666667v64h42.666667v-64z m-170.666667 0h-42.666667v149.333333h42.666667v-149.333333z m341.333333-149.333333v-128l-104.533333 81.066666c-6.4 6.4-17.066667 6.4-25.6 0L512 217.60000000000002l-147.2 98.133333c-8.533333 4.266667-17.066667 4.266667-25.6 0L234.666667 234.66666699999996v128h554.666666zM768 746.666667v-96l-44.8-10.666667c-8.533333-2.133333-14.933333-8.533333-14.933333-17.066667l-19.2-110.933333H661.333333V746.666667h106.666667z m-149.333333 21.333333v-149.333333h-42.666667V768h42.666667z m-128 42.666667h42.666666v-149.333334h-42.666666V810.666667z m-42.666667-64v-42.666667h-64c-12.8 0-21.333333-8.533333-21.333333-21.333333v-170.666667h-25.6l-17.066667 110.933333c-2.133333 8.533333-8.533333 14.933333-14.933333 17.066667l-49.066667 10.666667V746.666667h192zM234.666667-21.33333300000004v202.666666l117.333333 91.733334 147.2-98.133334c4.266667-2.133333 8.533333-4.266667 12.8-4.266666s8.533333 2.133333 12.8 4.266666l147.2 98.133334 117.333333-91.733334V-21.33333300000004H234.666667z"  horiz-adv-x="1024" />

    
    <glyph glyph-name="24" unicode="&#58889;" d="M333 503c0.5-21.8 18.9-39 40.7-39H803c22.1 0 40 17.9 40 40V659.1c0 24.2-20.6 43.9-45.9 43.9H208.9c-25.3 0-45.9-19.7-45.9-43.9v-552.3c0-24.2 20.6-43.9 45.9-43.9h588.2c25.3 0 45.9 19.7 45.9 43.9V264c0 22.1-17.9 40-40 40H373.8c-21.8 0-40.2-17.2-40.7-39-0.5-22.5 17.6-41 40-41h325c8.3 0 15.8-3.4 21.2-8.8 5.4-5.4 8.8-12.9 8.8-21.2 0-16.6-13.4-30-30-30H374.3c-55.2 0-100.9 44.1-101.3 99.2-0.4 55.6 44.5 100.8 100 100.8h430c16.7 0 32.5-4.1 46.4-11.4 31.9-16.7 53.6-50.1 53.6-88.6v-157.1c0-57.3-47.5-103.9-105.9-103.9H208.9C150.5 3 103 49.60000000000002 103 106.89999999999998V659.1c0 57.3 47.5 103.9 105.9 103.9h588.2c58.4 0 105.9-46.6 105.9-103.9V504c0-4.1-0.2-8.1-0.7-12-6-49.6-48.1-88-99.3-88H373c-55.5 0-100.4 45.2-100 100.8 0.4 55.1 46.1 99.2 101.3 99.2H698c8.3 0 15.8-3.4 21.2-8.8 5.4-5.4 8.8-12.9 8.8-21.2 0-16.6-13.4-30-30-30H373c-22.4 0-40.5-18.5-40-41z"  horiz-adv-x="1024" />

    
    <glyph glyph-name="30" unicode="&#59047;" d="M908.387097 641.651613h-769.651613c-19.819355 0-33.032258 13.212903-33.032258 33.032258s13.212903 33.032258 33.032258 33.032258h769.651613c19.819355 0 33.032258-13.212903 33.032258-33.032258s-13.212903-33.032258-33.032258-33.032258zM241.135484 430.245161c-19.819355 0-33.032258 13.212903-33.032258 33.032258v396.387097c0 19.819355 13.212903 33.032258 33.032258 33.032258s33.032258-13.212903 33.032258-33.032258v-396.387097c0-16.516129-16.516129-33.032258-33.032258-33.032258zM373.264516 430.245161c-19.819355 0-33.032258 13.212903-33.032258 33.032258v396.387097c0 19.819355 13.212903 33.032258 33.032258 33.032258s33.032258-13.212903 33.032258-33.032258v-396.387097c0-16.516129-16.516129-33.032258-33.032258-33.032258zM505.393548 430.245161c-19.819355 0-33.032258 13.212903-33.032258 33.032258v396.387097c0 19.819355 13.212903 33.032258 33.032258 33.032258s33.032258-13.212903 33.032258-33.032258v-396.387097c0-16.516129-16.516129-33.032258-33.032258-33.032258zM908.387097 773.780645h-769.651613c-19.819355 0-33.032258 13.212903-33.032258 33.032258s13.212903 33.032258 33.032258 33.032258h769.651613c19.819355 0 33.032258-13.212903 33.032258-33.032258s-13.212903-33.032258-33.032258-33.032258zM786.167742-128h-545.032258c-46.245161 0-89.187097 33.032258-95.793549 79.277419l-75.974193 396.387097c-9.909677 52.851613 26.425806 105.703226 79.277419 115.612903 6.606452 0 13.212903 3.303226 19.819355 3.303226h700.283871c56.154839 0 99.096774-42.941935 99.096774-99.096774 0-6.606452 0-13.212903-3.303226-19.819355l-19.819354-112.309677c-3.303226-16.516129-19.819355-29.729032-39.63871-26.425807-16.516129 3.303226-29.729032 19.819355-26.425806 39.63871l19.819354 112.309677v6.606452c0 19.819355-13.212903 33.032258-33.032258 33.032258h-706.890322c-16.516129-3.303226-29.729032-19.819355-26.425807-39.63871l75.974194-396.387096c3.303226-16.516129 16.516129-26.425806 33.032258-26.425807h545.032258c16.516129 0 29.729032 9.909677 33.032258 26.425807l26.425806 138.735483c3.303226 16.516129 19.819355 29.729032 39.63871 26.425807 16.516129-3.303226 29.729032-19.819355 26.425807-39.63871l-26.425807-138.735484c-13.212903-46.245161-52.851613-79.277419-99.096774-79.277419z"  horiz-adv-x="1024" />

    
    </font>
</defs>
</svg>
